<mxfile host="app.diagrams.net" modified="2023-04-28T13:48:51.879Z" agent="Mozilla/5.0 (Windows NT 10.0; Win64; x64) AppleWebKit/537.36 (KHTML, like Gecko) Chrome/112.0.0.0 Safari/537.36" version="21.2.3" etag="L0Drw9U-NozEfmGYVQQ9" type="device">
  <diagram name="Page-1" id="AG5RR3GAvlvxQe6nCQUq">
    <mxGraphModel dx="6106" dy="2607" grid="1" gridSize="10" guides="1" tooltips="1" connect="1" arrows="1" fold="1" page="1" pageScale="1" pageWidth="827" pageHeight="1169" math="0" shadow="0">
      <root>
        <mxCell id="0" />
        <mxCell id="1" parent="0" />
        <mxCell id="lPbnV7JKpfbCIfiGn8R--153" value="Users" style="swimlane;fontStyle=1;align=center;verticalAlign=top;childLayout=stackLayout;horizontal=1;startSize=26;horizontalStack=0;resizeParent=1;resizeParentMax=0;resizeLast=0;collapsible=1;marginBottom=0;whiteSpace=wrap;html=1;" parent="1" vertex="1">
          <mxGeometry x="850" y="-390" width="260" height="554" as="geometry" />
        </mxCell>
        <mxCell id="lPbnV7JKpfbCIfiGn8R--154" value="-id:int" style="text;strokeColor=#B09500;fillColor=#e3c800;align=left;verticalAlign=top;spacingLeft=4;spacingRight=4;overflow=hidden;rotatable=0;points=[[0,0.5],[1,0.5]];portConstraint=eastwest;whiteSpace=wrap;html=1;fontColor=#000000;" parent="lPbnV7JKpfbCIfiGn8R--153" vertex="1">
          <mxGeometry y="26" width="260" height="26" as="geometry" />
        </mxCell>
        <mxCell id="lPbnV7JKpfbCIfiGn8R--157" value="-rule_id:int" style="text;strokeColor=#36393d;fillColor=#cce5ff;align=left;verticalAlign=top;spacingLeft=4;spacingRight=4;overflow=hidden;rotatable=0;points=[[0,0.5],[1,0.5]];portConstraint=eastwest;whiteSpace=wrap;html=1;" parent="lPbnV7JKpfbCIfiGn8R--153" vertex="1">
          <mxGeometry y="52" width="260" height="26" as="geometry" />
        </mxCell>
        <mxCell id="lPbnV7JKpfbCIfiGn8R--158" value="-token_id:int" style="text;strokeColor=#36393d;fillColor=#cce5ff;align=left;verticalAlign=top;spacingLeft=4;spacingRight=4;overflow=hidden;rotatable=0;points=[[0,0.5],[1,0.5]];portConstraint=eastwest;whiteSpace=wrap;html=1;" parent="lPbnV7JKpfbCIfiGn8R--153" vertex="1">
          <mxGeometry y="78" width="260" height="26" as="geometry" />
        </mxCell>
        <mxCell id="lPbnV7JKpfbCIfiGn8R--155" value="-name:string" style="text;align=left;verticalAlign=top;spacingLeft=4;spacingRight=4;overflow=hidden;rotatable=0;points=[[0,0.5],[1,0.5]];portConstraint=eastwest;whiteSpace=wrap;html=1;fillColor=#eeeeee;strokeColor=#36393d;" parent="lPbnV7JKpfbCIfiGn8R--153" vertex="1">
          <mxGeometry y="104" width="260" height="26" as="geometry" />
        </mxCell>
        <mxCell id="lPbnV7JKpfbCIfiGn8R--156" value="-email:string" style="text;strokeColor=#36393d;fillColor=#eeeeee;align=left;verticalAlign=top;spacingLeft=4;spacingRight=4;overflow=hidden;rotatable=0;points=[[0,0.5],[1,0.5]];portConstraint=eastwest;whiteSpace=wrap;html=1;" parent="lPbnV7JKpfbCIfiGn8R--153" vertex="1">
          <mxGeometry y="130" width="260" height="26" as="geometry" />
        </mxCell>
        <mxCell id="lPbnV7JKpfbCIfiGn8R--159" value="-email_verifiat_at:datetime" style="text;strokeColor=#36393d;fillColor=#eeeeee;align=left;verticalAlign=top;spacingLeft=4;spacingRight=4;overflow=hidden;rotatable=0;points=[[0,0.5],[1,0.5]];portConstraint=eastwest;whiteSpace=wrap;html=1;" parent="lPbnV7JKpfbCIfiGn8R--153" vertex="1">
          <mxGeometry y="156" width="260" height="26" as="geometry" />
        </mxCell>
        <mxCell id="lPbnV7JKpfbCIfiGn8R--160" value="-password:string" style="text;strokeColor=#36393d;fillColor=#eeeeee;align=left;verticalAlign=top;spacingLeft=4;spacingRight=4;overflow=hidden;rotatable=0;points=[[0,0.5],[1,0.5]];portConstraint=eastwest;whiteSpace=wrap;html=1;" parent="lPbnV7JKpfbCIfiGn8R--153" vertex="1">
          <mxGeometry y="182" width="260" height="26" as="geometry" />
        </mxCell>
        <mxCell id="lPbnV7JKpfbCIfiGn8R--161" value="" style="line;strokeWidth=1;fillColor=none;align=left;verticalAlign=middle;spacingTop=-1;spacingLeft=3;spacingRight=3;rotatable=0;labelPosition=right;points=[];portConstraint=eastwest;strokeColor=inherit;" parent="lPbnV7JKpfbCIfiGn8R--153" vertex="1">
          <mxGeometry y="208" width="260" height="8" as="geometry" />
        </mxCell>
        <mxCell id="lPbnV7JKpfbCIfiGn8R--162" value="+login()" style="text;strokeColor=#82b366;fillColor=#d5e8d4;align=left;verticalAlign=top;spacingLeft=4;spacingRight=4;overflow=hidden;rotatable=0;points=[[0,0.5],[1,0.5]];portConstraint=eastwest;whiteSpace=wrap;html=1;" parent="lPbnV7JKpfbCIfiGn8R--153" vertex="1">
          <mxGeometry y="216" width="260" height="26" as="geometry" />
        </mxCell>
        <mxCell id="lPbnV7JKpfbCIfiGn8R--163" value="+register()" style="text;strokeColor=#82b366;fillColor=#d5e8d4;align=left;verticalAlign=top;spacingLeft=4;spacingRight=4;overflow=hidden;rotatable=0;points=[[0,0.5],[1,0.5]];portConstraint=eastwest;whiteSpace=wrap;html=1;" parent="lPbnV7JKpfbCIfiGn8R--153" vertex="1">
          <mxGeometry y="242" width="260" height="26" as="geometry" />
        </mxCell>
        <mxCell id="lPbnV7JKpfbCIfiGn8R--164" value="+logout()" style="text;strokeColor=#82b366;fillColor=#d5e8d4;align=left;verticalAlign=top;spacingLeft=4;spacingRight=4;overflow=hidden;rotatable=0;points=[[0,0.5],[1,0.5]];portConstraint=eastwest;whiteSpace=wrap;html=1;" parent="lPbnV7JKpfbCIfiGn8R--153" vertex="1">
          <mxGeometry y="268" width="260" height="26" as="geometry" />
        </mxCell>
        <mxCell id="lPbnV7JKpfbCIfiGn8R--165" value="+updateProfile()" style="text;strokeColor=#82b366;fillColor=#d5e8d4;align=left;verticalAlign=top;spacingLeft=4;spacingRight=4;overflow=hidden;rotatable=0;points=[[0,0.5],[1,0.5]];portConstraint=eastwest;whiteSpace=wrap;html=1;" parent="lPbnV7JKpfbCIfiGn8R--153" vertex="1">
          <mxGeometry y="294" width="260" height="26" as="geometry" />
        </mxCell>
        <mxCell id="lPbnV7JKpfbCIfiGn8R--166" value="+getProfile()" style="text;strokeColor=#82b366;fillColor=#d5e8d4;align=left;verticalAlign=top;spacingLeft=4;spacingRight=4;overflow=hidden;rotatable=0;points=[[0,0.5],[1,0.5]];portConstraint=eastwest;whiteSpace=wrap;html=1;" parent="lPbnV7JKpfbCIfiGn8R--153" vertex="1">
          <mxGeometry y="320" width="260" height="26" as="geometry" />
        </mxCell>
        <mxCell id="lPbnV7JKpfbCIfiGn8R--167" value="+deleteProfile()" style="text;strokeColor=#82b366;fillColor=#d5e8d4;align=left;verticalAlign=top;spacingLeft=4;spacingRight=4;overflow=hidden;rotatable=0;points=[[0,0.5],[1,0.5]];portConstraint=eastwest;whiteSpace=wrap;html=1;" parent="lPbnV7JKpfbCIfiGn8R--153" vertex="1">
          <mxGeometry y="346" width="260" height="26" as="geometry" />
        </mxCell>
        <mxCell id="lPbnV7JKpfbCIfiGn8R--168" value="+getAuthUser()" style="text;strokeColor=#82b366;fillColor=#d5e8d4;align=left;verticalAlign=top;spacingLeft=4;spacingRight=4;overflow=hidden;rotatable=0;points=[[0,0.5],[1,0.5]];portConstraint=eastwest;whiteSpace=wrap;html=1;" parent="lPbnV7JKpfbCIfiGn8R--153" vertex="1">
          <mxGeometry y="372" width="260" height="26" as="geometry" />
        </mxCell>
        <mxCell id="lPbnV7JKpfbCIfiGn8R--169" value="+activateAccount()" style="text;strokeColor=#82b366;fillColor=#d5e8d4;align=left;verticalAlign=top;spacingLeft=4;spacingRight=4;overflow=hidden;rotatable=0;points=[[0,0.5],[1,0.5]];portConstraint=eastwest;whiteSpace=wrap;html=1;" parent="lPbnV7JKpfbCIfiGn8R--153" vertex="1">
          <mxGeometry y="398" width="260" height="26" as="geometry" />
        </mxCell>
        <mxCell id="lPbnV7JKpfbCIfiGn8R--170" value="+checkaccountVerified()" style="text;strokeColor=#82b366;fillColor=#d5e8d4;align=left;verticalAlign=top;spacingLeft=4;spacingRight=4;overflow=hidden;rotatable=0;points=[[0,0.5],[1,0.5]];portConstraint=eastwest;whiteSpace=wrap;html=1;" parent="lPbnV7JKpfbCIfiGn8R--153" vertex="1">
          <mxGeometry y="424" width="260" height="26" as="geometry" />
        </mxCell>
        <mxCell id="lPbnV7JKpfbCIfiGn8R--171" value="+checkActivationAccount()" style="text;strokeColor=#82b366;fillColor=#d5e8d4;align=left;verticalAlign=top;spacingLeft=4;spacingRight=4;overflow=hidden;rotatable=0;points=[[0,0.5],[1,0.5]];portConstraint=eastwest;whiteSpace=wrap;html=1;" parent="lPbnV7JKpfbCIfiGn8R--153" vertex="1">
          <mxGeometry y="450" width="260" height="26" as="geometry" />
        </mxCell>
        <mxCell id="f4Sr20RX5HmNV0wqVAR2-38" value="+forgotPassword()" style="text;strokeColor=#82b366;fillColor=#d5e8d4;align=left;verticalAlign=top;spacingLeft=4;spacingRight=4;overflow=hidden;rotatable=0;points=[[0,0.5],[1,0.5]];portConstraint=eastwest;whiteSpace=wrap;html=1;" vertex="1" parent="lPbnV7JKpfbCIfiGn8R--153">
          <mxGeometry y="476" width="260" height="26" as="geometry" />
        </mxCell>
        <mxCell id="f4Sr20RX5HmNV0wqVAR2-39" value="+ressetPassword()" style="text;strokeColor=#82b366;fillColor=#d5e8d4;align=left;verticalAlign=top;spacingLeft=4;spacingRight=4;overflow=hidden;rotatable=0;points=[[0,0.5],[1,0.5]];portConstraint=eastwest;whiteSpace=wrap;html=1;" vertex="1" parent="lPbnV7JKpfbCIfiGn8R--153">
          <mxGeometry y="502" width="260" height="26" as="geometry" />
        </mxCell>
        <mxCell id="f4Sr20RX5HmNV0wqVAR2-40" value="+resendActivationMail()" style="text;strokeColor=#82b366;fillColor=#d5e8d4;align=left;verticalAlign=top;spacingLeft=4;spacingRight=4;overflow=hidden;rotatable=0;points=[[0,0.5],[1,0.5]];portConstraint=eastwest;whiteSpace=wrap;html=1;" vertex="1" parent="lPbnV7JKpfbCIfiGn8R--153">
          <mxGeometry y="528" width="260" height="26" as="geometry" />
        </mxCell>
        <mxCell id="ouK6QzMCspJjK9I2fayr-5" value="Feedbacks" style="swimlane;fontStyle=1;align=center;verticalAlign=top;childLayout=stackLayout;horizontal=1;startSize=26;horizontalStack=0;resizeParent=1;resizeParentMax=0;resizeLast=0;collapsible=1;marginBottom=0;whiteSpace=wrap;html=1;" parent="1" vertex="1">
          <mxGeometry x="-130" y="-60" width="260" height="372" as="geometry" />
        </mxCell>
        <mxCell id="ouK6QzMCspJjK9I2fayr-6" value="-id: int" style="text;strokeColor=#B09500;fillColor=#e3c800;align=left;verticalAlign=top;spacingLeft=4;spacingRight=4;overflow=hidden;rotatable=0;points=[[0,0.5],[1,0.5]];portConstraint=eastwest;whiteSpace=wrap;html=1;fontColor=#000000;" parent="ouK6QzMCspJjK9I2fayr-5" vertex="1">
          <mxGeometry y="26" width="260" height="26" as="geometry" />
        </mxCell>
        <mxCell id="ouK6QzMCspJjK9I2fayr-8" value="-user_id:int" style="text;strokeColor=#36393d;fillColor=#cce5ff;align=left;verticalAlign=top;spacingLeft=4;spacingRight=4;overflow=hidden;rotatable=0;points=[[0,0.5],[1,0.5]];portConstraint=eastwest;whiteSpace=wrap;html=1;" parent="ouK6QzMCspJjK9I2fayr-5" vertex="1">
          <mxGeometry y="52" width="260" height="26" as="geometry" />
        </mxCell>
        <mxCell id="ouK6QzMCspJjK9I2fayr-9" value="-menu_id:int" style="text;strokeColor=#36393d;fillColor=#cce5ff;align=left;verticalAlign=top;spacingLeft=4;spacingRight=4;overflow=hidden;rotatable=0;points=[[0,0.5],[1,0.5]];portConstraint=eastwest;whiteSpace=wrap;html=1;" parent="ouK6QzMCspJjK9I2fayr-5" vertex="1">
          <mxGeometry y="78" width="260" height="26" as="geometry" />
        </mxCell>
        <mxCell id="ouK6QzMCspJjK9I2fayr-7" value="-body:int" style="text;strokeColor=#36393d;fillColor=#eeeeee;align=left;verticalAlign=top;spacingLeft=4;spacingRight=4;overflow=hidden;rotatable=0;points=[[0,0.5],[1,0.5]];portConstraint=eastwest;whiteSpace=wrap;html=1;" parent="ouK6QzMCspJjK9I2fayr-5" vertex="1">
          <mxGeometry y="104" width="260" height="26" as="geometry" />
        </mxCell>
        <mxCell id="ouK6QzMCspJjK9I2fayr-13" value="" style="line;strokeWidth=1;fillColor=none;align=left;verticalAlign=middle;spacingTop=-1;spacingLeft=3;spacingRight=3;rotatable=0;labelPosition=right;points=[];portConstraint=eastwest;strokeColor=inherit;" parent="ouK6QzMCspJjK9I2fayr-5" vertex="1">
          <mxGeometry y="130" width="260" height="8" as="geometry" />
        </mxCell>
        <mxCell id="ouK6QzMCspJjK9I2fayr-14" value="+all()" style="text;strokeColor=#82b366;fillColor=#d5e8d4;align=left;verticalAlign=top;spacingLeft=4;spacingRight=4;overflow=hidden;rotatable=0;points=[[0,0.5],[1,0.5]];portConstraint=eastwest;whiteSpace=wrap;html=1;" parent="ouK6QzMCspJjK9I2fayr-5" vertex="1">
          <mxGeometry y="138" width="260" height="26" as="geometry" />
        </mxCell>
        <mxCell id="ouK6QzMCspJjK9I2fayr-15" value="+show(key)" style="text;strokeColor=#82b366;fillColor=#d5e8d4;align=left;verticalAlign=top;spacingLeft=4;spacingRight=4;overflow=hidden;rotatable=0;points=[[0,0.5],[1,0.5]];portConstraint=eastwest;whiteSpace=wrap;html=1;" parent="ouK6QzMCspJjK9I2fayr-5" vertex="1">
          <mxGeometry y="164" width="260" height="26" as="geometry" />
        </mxCell>
        <mxCell id="ouK6QzMCspJjK9I2fayr-16" value="+clear()" style="text;strokeColor=#82b366;fillColor=#d5e8d4;align=left;verticalAlign=top;spacingLeft=4;spacingRight=4;overflow=hidden;rotatable=0;points=[[0,0.5],[1,0.5]];portConstraint=eastwest;whiteSpace=wrap;html=1;" parent="ouK6QzMCspJjK9I2fayr-5" vertex="1">
          <mxGeometry y="190" width="260" height="26" as="geometry" />
        </mxCell>
        <mxCell id="ouK6QzMCspJjK9I2fayr-17" value="+store(data)" style="text;strokeColor=#82b366;fillColor=#d5e8d4;align=left;verticalAlign=top;spacingLeft=4;spacingRight=4;overflow=hidden;rotatable=0;points=[[0,0.5],[1,0.5]];portConstraint=eastwest;whiteSpace=wrap;html=1;" parent="ouK6QzMCspJjK9I2fayr-5" vertex="1">
          <mxGeometry y="216" width="260" height="26" as="geometry" />
        </mxCell>
        <mxCell id="ouK6QzMCspJjK9I2fayr-18" value="+destroy(id)" style="text;strokeColor=#82b366;fillColor=#d5e8d4;align=left;verticalAlign=top;spacingLeft=4;spacingRight=4;overflow=hidden;rotatable=0;points=[[0,0.5],[1,0.5]];portConstraint=eastwest;whiteSpace=wrap;html=1;" parent="ouK6QzMCspJjK9I2fayr-5" vertex="1">
          <mxGeometry y="242" width="260" height="26" as="geometry" />
        </mxCell>
        <mxCell id="ouK6QzMCspJjK9I2fayr-19" value="+update(id , data)" style="text;strokeColor=#82b366;fillColor=#d5e8d4;align=left;verticalAlign=top;spacingLeft=4;spacingRight=4;overflow=hidden;rotatable=0;points=[[0,0.5],[1,0.5]];portConstraint=eastwest;whiteSpace=wrap;html=1;" parent="ouK6QzMCspJjK9I2fayr-5" vertex="1">
          <mxGeometry y="268" width="260" height="26" as="geometry" />
        </mxCell>
        <mxCell id="ouK6QzMCspJjK9I2fayr-20" value="+listByUser(user_id)" style="text;strokeColor=#82b366;fillColor=#d5e8d4;align=left;verticalAlign=top;spacingLeft=4;spacingRight=4;overflow=hidden;rotatable=0;points=[[0,0.5],[1,0.5]];portConstraint=eastwest;whiteSpace=wrap;html=1;" parent="ouK6QzMCspJjK9I2fayr-5" vertex="1">
          <mxGeometry y="294" width="260" height="26" as="geometry" />
        </mxCell>
        <mxCell id="ouK6QzMCspJjK9I2fayr-21" value="+listByMenu(menu_id)" style="text;strokeColor=#82b366;fillColor=#d5e8d4;align=left;verticalAlign=top;spacingLeft=4;spacingRight=4;overflow=hidden;rotatable=0;points=[[0,0.5],[1,0.5]];portConstraint=eastwest;whiteSpace=wrap;html=1;" parent="ouK6QzMCspJjK9I2fayr-5" vertex="1">
          <mxGeometry y="320" width="260" height="26" as="geometry" />
        </mxCell>
        <mxCell id="ouK6QzMCspJjK9I2fayr-22" value="+listByUserAndMenu(user_id , menu_id)" style="text;strokeColor=#82b366;fillColor=#d5e8d4;align=left;verticalAlign=top;spacingLeft=4;spacingRight=4;overflow=hidden;rotatable=0;points=[[0,0.5],[1,0.5]];portConstraint=eastwest;whiteSpace=wrap;html=1;" parent="ouK6QzMCspJjK9I2fayr-5" vertex="1">
          <mxGeometry y="346" width="260" height="26" as="geometry" />
        </mxCell>
        <mxCell id="ouK6QzMCspJjK9I2fayr-25" value="key : string have id&lt;br&gt;platform : operating system" style="rounded=0;whiteSpace=wrap;html=1;fillColor=#f8cecc;strokeColor=#b85450;align=left;horizontal=1;verticalAlign=top;fontStyle=1" parent="1" vertex="1">
          <mxGeometry x="-2210" y="-700" width="880" height="80" as="geometry" />
        </mxCell>
        <mxCell id="ouK6QzMCspJjK9I2fayr-26" value="Comments" style="swimlane;fontStyle=1;align=center;verticalAlign=top;childLayout=stackLayout;horizontal=1;startSize=26;horizontalStack=0;resizeParent=1;resizeParentMax=0;resizeLast=0;collapsible=1;marginBottom=0;whiteSpace=wrap;html=1;" parent="1" vertex="1">
          <mxGeometry x="-130" y="-470" width="260" height="372" as="geometry" />
        </mxCell>
        <mxCell id="ouK6QzMCspJjK9I2fayr-27" value="-id: int" style="text;strokeColor=#B09500;fillColor=#e3c800;align=left;verticalAlign=top;spacingLeft=4;spacingRight=4;overflow=hidden;rotatable=0;points=[[0,0.5],[1,0.5]];portConstraint=eastwest;whiteSpace=wrap;html=1;fontColor=#000000;" parent="ouK6QzMCspJjK9I2fayr-26" vertex="1">
          <mxGeometry y="26" width="260" height="26" as="geometry" />
        </mxCell>
        <mxCell id="ouK6QzMCspJjK9I2fayr-28" value="-user_id:int" style="text;strokeColor=#36393d;fillColor=#cce5ff;align=left;verticalAlign=top;spacingLeft=4;spacingRight=4;overflow=hidden;rotatable=0;points=[[0,0.5],[1,0.5]];portConstraint=eastwest;whiteSpace=wrap;html=1;" parent="ouK6QzMCspJjK9I2fayr-26" vertex="1">
          <mxGeometry y="52" width="260" height="26" as="geometry" />
        </mxCell>
        <mxCell id="ouK6QzMCspJjK9I2fayr-29" value="-menu_id:int" style="text;strokeColor=#36393d;fillColor=#cce5ff;align=left;verticalAlign=top;spacingLeft=4;spacingRight=4;overflow=hidden;rotatable=0;points=[[0,0.5],[1,0.5]];portConstraint=eastwest;whiteSpace=wrap;html=1;" parent="ouK6QzMCspJjK9I2fayr-26" vertex="1">
          <mxGeometry y="78" width="260" height="26" as="geometry" />
        </mxCell>
        <mxCell id="ouK6QzMCspJjK9I2fayr-30" value="-body:int" style="text;strokeColor=#36393d;fillColor=#eeeeee;align=left;verticalAlign=top;spacingLeft=4;spacingRight=4;overflow=hidden;rotatable=0;points=[[0,0.5],[1,0.5]];portConstraint=eastwest;whiteSpace=wrap;html=1;" parent="ouK6QzMCspJjK9I2fayr-26" vertex="1">
          <mxGeometry y="104" width="260" height="26" as="geometry" />
        </mxCell>
        <mxCell id="ouK6QzMCspJjK9I2fayr-31" value="" style="line;strokeWidth=1;fillColor=none;align=left;verticalAlign=middle;spacingTop=-1;spacingLeft=3;spacingRight=3;rotatable=0;labelPosition=right;points=[];portConstraint=eastwest;strokeColor=inherit;" parent="ouK6QzMCspJjK9I2fayr-26" vertex="1">
          <mxGeometry y="130" width="260" height="8" as="geometry" />
        </mxCell>
        <mxCell id="ouK6QzMCspJjK9I2fayr-32" value="+all()" style="text;strokeColor=#82b366;fillColor=#d5e8d4;align=left;verticalAlign=top;spacingLeft=4;spacingRight=4;overflow=hidden;rotatable=0;points=[[0,0.5],[1,0.5]];portConstraint=eastwest;whiteSpace=wrap;html=1;" parent="ouK6QzMCspJjK9I2fayr-26" vertex="1">
          <mxGeometry y="138" width="260" height="26" as="geometry" />
        </mxCell>
        <mxCell id="ouK6QzMCspJjK9I2fayr-33" value="+show(key)" style="text;strokeColor=#82b366;fillColor=#d5e8d4;align=left;verticalAlign=top;spacingLeft=4;spacingRight=4;overflow=hidden;rotatable=0;points=[[0,0.5],[1,0.5]];portConstraint=eastwest;whiteSpace=wrap;html=1;" parent="ouK6QzMCspJjK9I2fayr-26" vertex="1">
          <mxGeometry y="164" width="260" height="26" as="geometry" />
        </mxCell>
        <mxCell id="ouK6QzMCspJjK9I2fayr-34" value="+clear()" style="text;strokeColor=#82b366;fillColor=#d5e8d4;align=left;verticalAlign=top;spacingLeft=4;spacingRight=4;overflow=hidden;rotatable=0;points=[[0,0.5],[1,0.5]];portConstraint=eastwest;whiteSpace=wrap;html=1;" parent="ouK6QzMCspJjK9I2fayr-26" vertex="1">
          <mxGeometry y="190" width="260" height="26" as="geometry" />
        </mxCell>
        <mxCell id="ouK6QzMCspJjK9I2fayr-35" value="+store(data)" style="text;strokeColor=#82b366;fillColor=#d5e8d4;align=left;verticalAlign=top;spacingLeft=4;spacingRight=4;overflow=hidden;rotatable=0;points=[[0,0.5],[1,0.5]];portConstraint=eastwest;whiteSpace=wrap;html=1;" parent="ouK6QzMCspJjK9I2fayr-26" vertex="1">
          <mxGeometry y="216" width="260" height="26" as="geometry" />
        </mxCell>
        <mxCell id="ouK6QzMCspJjK9I2fayr-36" value="+destroy(id)" style="text;strokeColor=#82b366;fillColor=#d5e8d4;align=left;verticalAlign=top;spacingLeft=4;spacingRight=4;overflow=hidden;rotatable=0;points=[[0,0.5],[1,0.5]];portConstraint=eastwest;whiteSpace=wrap;html=1;" parent="ouK6QzMCspJjK9I2fayr-26" vertex="1">
          <mxGeometry y="242" width="260" height="26" as="geometry" />
        </mxCell>
        <mxCell id="ouK6QzMCspJjK9I2fayr-37" value="+update(id , data)" style="text;strokeColor=#82b366;fillColor=#d5e8d4;align=left;verticalAlign=top;spacingLeft=4;spacingRight=4;overflow=hidden;rotatable=0;points=[[0,0.5],[1,0.5]];portConstraint=eastwest;whiteSpace=wrap;html=1;" parent="ouK6QzMCspJjK9I2fayr-26" vertex="1">
          <mxGeometry y="268" width="260" height="26" as="geometry" />
        </mxCell>
        <mxCell id="ouK6QzMCspJjK9I2fayr-38" value="+listByUser(user_id)" style="text;strokeColor=#82b366;fillColor=#d5e8d4;align=left;verticalAlign=top;spacingLeft=4;spacingRight=4;overflow=hidden;rotatable=0;points=[[0,0.5],[1,0.5]];portConstraint=eastwest;whiteSpace=wrap;html=1;" parent="ouK6QzMCspJjK9I2fayr-26" vertex="1">
          <mxGeometry y="294" width="260" height="26" as="geometry" />
        </mxCell>
        <mxCell id="ouK6QzMCspJjK9I2fayr-39" value="+listByMenu(menu_id)" style="text;strokeColor=#82b366;fillColor=#d5e8d4;align=left;verticalAlign=top;spacingLeft=4;spacingRight=4;overflow=hidden;rotatable=0;points=[[0,0.5],[1,0.5]];portConstraint=eastwest;whiteSpace=wrap;html=1;" parent="ouK6QzMCspJjK9I2fayr-26" vertex="1">
          <mxGeometry y="320" width="260" height="26" as="geometry" />
        </mxCell>
        <mxCell id="ouK6QzMCspJjK9I2fayr-40" value="+listByUserAndMenu(user_id , menu_id)" style="text;strokeColor=#82b366;fillColor=#d5e8d4;align=left;verticalAlign=top;spacingLeft=4;spacingRight=4;overflow=hidden;rotatable=0;points=[[0,0.5],[1,0.5]];portConstraint=eastwest;whiteSpace=wrap;html=1;" parent="ouK6QzMCspJjK9I2fayr-26" vertex="1">
          <mxGeometry y="346" width="260" height="26" as="geometry" />
        </mxCell>
        <mxCell id="ouK6QzMCspJjK9I2fayr-41" value="Menus" style="swimlane;fontStyle=1;align=center;verticalAlign=top;childLayout=stackLayout;horizontal=1;startSize=26;horizontalStack=0;resizeParent=1;resizeParentMax=0;resizeLast=0;collapsible=1;marginBottom=0;whiteSpace=wrap;html=1;" parent="1" vertex="1">
          <mxGeometry x="-790" y="-550" width="260" height="424" as="geometry" />
        </mxCell>
        <mxCell id="ouK6QzMCspJjK9I2fayr-42" value="-id: int" style="text;strokeColor=#B09500;fillColor=#e3c800;align=left;verticalAlign=top;spacingLeft=4;spacingRight=4;overflow=hidden;rotatable=0;points=[[0,0.5],[1,0.5]];portConstraint=eastwest;whiteSpace=wrap;html=1;fontColor=#000000;" parent="ouK6QzMCspJjK9I2fayr-41" vertex="1">
          <mxGeometry y="26" width="260" height="26" as="geometry" />
        </mxCell>
        <mxCell id="ouK6QzMCspJjK9I2fayr-43" value="-user_id:int" style="text;strokeColor=#36393d;fillColor=#cce5ff;align=left;verticalAlign=top;spacingLeft=4;spacingRight=4;overflow=hidden;rotatable=0;points=[[0,0.5],[1,0.5]];portConstraint=eastwest;whiteSpace=wrap;html=1;" parent="ouK6QzMCspJjK9I2fayr-41" vertex="1">
          <mxGeometry y="52" width="260" height="26" as="geometry" />
        </mxCell>
        <mxCell id="ouK6QzMCspJjK9I2fayr-56" value="-name:string" style="text;strokeColor=#36393d;fillColor=#eeeeee;align=left;verticalAlign=top;spacingLeft=4;spacingRight=4;overflow=hidden;rotatable=0;points=[[0,0.5],[1,0.5]];portConstraint=eastwest;whiteSpace=wrap;html=1;" parent="ouK6QzMCspJjK9I2fayr-41" vertex="1">
          <mxGeometry y="78" width="260" height="26" as="geometry" />
        </mxCell>
        <mxCell id="ouK6QzMCspJjK9I2fayr-57" value="-date : date" style="text;strokeColor=#36393d;fillColor=#eeeeee;align=left;verticalAlign=top;spacingLeft=4;spacingRight=4;overflow=hidden;rotatable=0;points=[[0,0.5],[1,0.5]];portConstraint=eastwest;whiteSpace=wrap;html=1;" parent="ouK6QzMCspJjK9I2fayr-41" vertex="1">
          <mxGeometry y="104" width="260" height="26" as="geometry" />
        </mxCell>
        <mxCell id="ouK6QzMCspJjK9I2fayr-75" value="-description" style="text;strokeColor=#36393d;fillColor=#eeeeee;align=left;verticalAlign=top;spacingLeft=4;spacingRight=4;overflow=hidden;rotatable=0;points=[[0,0.5],[1,0.5]];portConstraint=eastwest;whiteSpace=wrap;html=1;" parent="ouK6QzMCspJjK9I2fayr-41" vertex="1">
          <mxGeometry y="130" width="260" height="26" as="geometry" />
        </mxCell>
        <mxCell id="ouK6QzMCspJjK9I2fayr-77" value="-quantity:int" style="text;strokeColor=#36393d;fillColor=#eeeeee;align=left;verticalAlign=top;spacingLeft=4;spacingRight=4;overflow=hidden;rotatable=0;points=[[0,0.5],[1,0.5]];portConstraint=eastwest;whiteSpace=wrap;html=1;" parent="ouK6QzMCspJjK9I2fayr-41" vertex="1">
          <mxGeometry y="156" width="260" height="26" as="geometry" />
        </mxCell>
        <mxCell id="ouK6QzMCspJjK9I2fayr-76" value="-image:string" style="text;strokeColor=#36393d;fillColor=#eeeeee;align=left;verticalAlign=top;spacingLeft=4;spacingRight=4;overflow=hidden;rotatable=0;points=[[0,0.5],[1,0.5]];portConstraint=eastwest;whiteSpace=wrap;html=1;" parent="ouK6QzMCspJjK9I2fayr-41" vertex="1">
          <mxGeometry y="182" width="260" height="26" as="geometry" />
        </mxCell>
        <mxCell id="ouK6QzMCspJjK9I2fayr-46" value="" style="line;strokeWidth=1;fillColor=none;align=left;verticalAlign=middle;spacingTop=-1;spacingLeft=3;spacingRight=3;rotatable=0;labelPosition=right;points=[];portConstraint=eastwest;strokeColor=inherit;" parent="ouK6QzMCspJjK9I2fayr-41" vertex="1">
          <mxGeometry y="208" width="260" height="8" as="geometry" />
        </mxCell>
        <mxCell id="ouK6QzMCspJjK9I2fayr-47" value="+all()" style="text;strokeColor=#82b366;fillColor=#d5e8d4;align=left;verticalAlign=top;spacingLeft=4;spacingRight=4;overflow=hidden;rotatable=0;points=[[0,0.5],[1,0.5]];portConstraint=eastwest;whiteSpace=wrap;html=1;" parent="ouK6QzMCspJjK9I2fayr-41" vertex="1">
          <mxGeometry y="216" width="260" height="26" as="geometry" />
        </mxCell>
        <mxCell id="ouK6QzMCspJjK9I2fayr-48" value="+show(key)" style="text;strokeColor=#82b366;fillColor=#d5e8d4;align=left;verticalAlign=top;spacingLeft=4;spacingRight=4;overflow=hidden;rotatable=0;points=[[0,0.5],[1,0.5]];portConstraint=eastwest;whiteSpace=wrap;html=1;" parent="ouK6QzMCspJjK9I2fayr-41" vertex="1">
          <mxGeometry y="242" width="260" height="26" as="geometry" />
        </mxCell>
        <mxCell id="ouK6QzMCspJjK9I2fayr-49" value="+clear()" style="text;strokeColor=#82b366;fillColor=#d5e8d4;align=left;verticalAlign=top;spacingLeft=4;spacingRight=4;overflow=hidden;rotatable=0;points=[[0,0.5],[1,0.5]];portConstraint=eastwest;whiteSpace=wrap;html=1;" parent="ouK6QzMCspJjK9I2fayr-41" vertex="1">
          <mxGeometry y="268" width="260" height="26" as="geometry" />
        </mxCell>
        <mxCell id="ouK6QzMCspJjK9I2fayr-50" value="+store(data)" style="text;strokeColor=#82b366;fillColor=#d5e8d4;align=left;verticalAlign=top;spacingLeft=4;spacingRight=4;overflow=hidden;rotatable=0;points=[[0,0.5],[1,0.5]];portConstraint=eastwest;whiteSpace=wrap;html=1;" parent="ouK6QzMCspJjK9I2fayr-41" vertex="1">
          <mxGeometry y="294" width="260" height="26" as="geometry" />
        </mxCell>
        <mxCell id="ouK6QzMCspJjK9I2fayr-51" value="+destroy(id)" style="text;strokeColor=#82b366;fillColor=#d5e8d4;align=left;verticalAlign=top;spacingLeft=4;spacingRight=4;overflow=hidden;rotatable=0;points=[[0,0.5],[1,0.5]];portConstraint=eastwest;whiteSpace=wrap;html=1;" parent="ouK6QzMCspJjK9I2fayr-41" vertex="1">
          <mxGeometry y="320" width="260" height="26" as="geometry" />
        </mxCell>
        <mxCell id="ouK6QzMCspJjK9I2fayr-52" value="+update(id , data)" style="text;strokeColor=#82b366;fillColor=#d5e8d4;align=left;verticalAlign=top;spacingLeft=4;spacingRight=4;overflow=hidden;rotatable=0;points=[[0,0.5],[1,0.5]];portConstraint=eastwest;whiteSpace=wrap;html=1;" parent="ouK6QzMCspJjK9I2fayr-41" vertex="1">
          <mxGeometry y="346" width="260" height="26" as="geometry" />
        </mxCell>
        <mxCell id="ouK6QzMCspJjK9I2fayr-53" value="+listByUser(user_id)" style="text;strokeColor=#82b366;fillColor=#d5e8d4;align=left;verticalAlign=top;spacingLeft=4;spacingRight=4;overflow=hidden;rotatable=0;points=[[0,0.5],[1,0.5]];portConstraint=eastwest;whiteSpace=wrap;html=1;" parent="ouK6QzMCspJjK9I2fayr-41" vertex="1">
          <mxGeometry y="372" width="260" height="26" as="geometry" />
        </mxCell>
        <mxCell id="ouK6QzMCspJjK9I2fayr-96" value="+showToday()" style="text;strokeColor=#82b366;fillColor=#d5e8d4;align=left;verticalAlign=top;spacingLeft=4;spacingRight=4;overflow=hidden;rotatable=0;points=[[0,0.5],[1,0.5]];portConstraint=eastwest;whiteSpace=wrap;html=1;" parent="ouK6QzMCspJjK9I2fayr-41" vertex="1">
          <mxGeometry y="398" width="260" height="26" as="geometry" />
        </mxCell>
        <mxCell id="ouK6QzMCspJjK9I2fayr-78" value="Meals" style="swimlane;fontStyle=1;align=center;verticalAlign=top;childLayout=stackLayout;horizontal=1;startSize=26;horizontalStack=0;resizeParent=1;resizeParentMax=0;resizeLast=0;collapsible=1;marginBottom=0;whiteSpace=wrap;html=1;" parent="1" vertex="1">
          <mxGeometry x="-1410" y="40" width="220" height="476" as="geometry" />
        </mxCell>
        <mxCell id="ouK6QzMCspJjK9I2fayr-79" value="-id: int" style="text;strokeColor=#B09500;fillColor=#e3c800;align=left;verticalAlign=top;spacingLeft=4;spacingRight=4;overflow=hidden;rotatable=0;points=[[0,0.5],[1,0.5]];portConstraint=eastwest;whiteSpace=wrap;html=1;fontColor=#000000;" parent="ouK6QzMCspJjK9I2fayr-78" vertex="1">
          <mxGeometry y="26" width="220" height="26" as="geometry" />
        </mxCell>
        <mxCell id="ouK6QzMCspJjK9I2fayr-80" value="-user_id:int" style="text;strokeColor=#36393d;fillColor=#cce5ff;align=left;verticalAlign=top;spacingLeft=4;spacingRight=4;overflow=hidden;rotatable=0;points=[[0,0.5],[1,0.5]];portConstraint=eastwest;whiteSpace=wrap;html=1;" parent="ouK6QzMCspJjK9I2fayr-78" vertex="1">
          <mxGeometry y="52" width="220" height="26" as="geometry" />
        </mxCell>
        <mxCell id="ouK6QzMCspJjK9I2fayr-82" value="-date : date" style="text;strokeColor=#36393d;fillColor=#eeeeee;align=left;verticalAlign=top;spacingLeft=4;spacingRight=4;overflow=hidden;rotatable=0;points=[[0,0.5],[1,0.5]];portConstraint=eastwest;whiteSpace=wrap;html=1;" parent="ouK6QzMCspJjK9I2fayr-78" vertex="1">
          <mxGeometry y="78" width="220" height="26" as="geometry" />
        </mxCell>
        <mxCell id="ouK6QzMCspJjK9I2fayr-95" value="-category_id:int" style="text;strokeColor=#36393d;fillColor=#cce5ff;align=left;verticalAlign=top;spacingLeft=4;spacingRight=4;overflow=hidden;rotatable=0;points=[[0,0.5],[1,0.5]];portConstraint=eastwest;whiteSpace=wrap;html=1;" parent="ouK6QzMCspJjK9I2fayr-78" vertex="1">
          <mxGeometry y="104" width="220" height="26" as="geometry" />
        </mxCell>
        <mxCell id="ouK6QzMCspJjK9I2fayr-81" value="-name:string" style="text;strokeColor=#36393d;fillColor=#eeeeee;align=left;verticalAlign=top;spacingLeft=4;spacingRight=4;overflow=hidden;rotatable=0;points=[[0,0.5],[1,0.5]];portConstraint=eastwest;whiteSpace=wrap;html=1;" parent="ouK6QzMCspJjK9I2fayr-78" vertex="1">
          <mxGeometry y="130" width="220" height="26" as="geometry" />
        </mxCell>
        <mxCell id="ouK6QzMCspJjK9I2fayr-83" value="-description" style="text;strokeColor=#36393d;fillColor=#eeeeee;align=left;verticalAlign=top;spacingLeft=4;spacingRight=4;overflow=hidden;rotatable=0;points=[[0,0.5],[1,0.5]];portConstraint=eastwest;whiteSpace=wrap;html=1;" parent="ouK6QzMCspJjK9I2fayr-78" vertex="1">
          <mxGeometry y="156" width="220" height="26" as="geometry" />
        </mxCell>
        <mxCell id="ouK6QzMCspJjK9I2fayr-84" value="-quantity:int" style="text;strokeColor=#36393d;fillColor=#eeeeee;align=left;verticalAlign=top;spacingLeft=4;spacingRight=4;overflow=hidden;rotatable=0;points=[[0,0.5],[1,0.5]];portConstraint=eastwest;whiteSpace=wrap;html=1;" parent="ouK6QzMCspJjK9I2fayr-78" vertex="1">
          <mxGeometry y="182" width="220" height="26" as="geometry" />
        </mxCell>
        <mxCell id="ouK6QzMCspJjK9I2fayr-85" value="-image:string" style="text;strokeColor=#36393d;fillColor=#eeeeee;align=left;verticalAlign=top;spacingLeft=4;spacingRight=4;overflow=hidden;rotatable=0;points=[[0,0.5],[1,0.5]];portConstraint=eastwest;whiteSpace=wrap;html=1;" parent="ouK6QzMCspJjK9I2fayr-78" vertex="1">
          <mxGeometry y="208" width="220" height="26" as="geometry" />
        </mxCell>
        <mxCell id="ouK6QzMCspJjK9I2fayr-86" value="" style="line;strokeWidth=1;fillColor=none;align=left;verticalAlign=middle;spacingTop=-1;spacingLeft=3;spacingRight=3;rotatable=0;labelPosition=right;points=[];portConstraint=eastwest;strokeColor=inherit;" parent="ouK6QzMCspJjK9I2fayr-78" vertex="1">
          <mxGeometry y="234" width="220" height="8" as="geometry" />
        </mxCell>
        <mxCell id="ouK6QzMCspJjK9I2fayr-87" value="+all()" style="text;strokeColor=#82b366;fillColor=#d5e8d4;align=left;verticalAlign=top;spacingLeft=4;spacingRight=4;overflow=hidden;rotatable=0;points=[[0,0.5],[1,0.5]];portConstraint=eastwest;whiteSpace=wrap;html=1;" parent="ouK6QzMCspJjK9I2fayr-78" vertex="1">
          <mxGeometry y="242" width="220" height="26" as="geometry" />
        </mxCell>
        <mxCell id="ouK6QzMCspJjK9I2fayr-88" value="+show(key)" style="text;strokeColor=#82b366;fillColor=#d5e8d4;align=left;verticalAlign=top;spacingLeft=4;spacingRight=4;overflow=hidden;rotatable=0;points=[[0,0.5],[1,0.5]];portConstraint=eastwest;whiteSpace=wrap;html=1;" parent="ouK6QzMCspJjK9I2fayr-78" vertex="1">
          <mxGeometry y="268" width="220" height="26" as="geometry" />
        </mxCell>
        <mxCell id="ouK6QzMCspJjK9I2fayr-89" value="+clear()" style="text;strokeColor=#82b366;fillColor=#d5e8d4;align=left;verticalAlign=top;spacingLeft=4;spacingRight=4;overflow=hidden;rotatable=0;points=[[0,0.5],[1,0.5]];portConstraint=eastwest;whiteSpace=wrap;html=1;" parent="ouK6QzMCspJjK9I2fayr-78" vertex="1">
          <mxGeometry y="294" width="220" height="26" as="geometry" />
        </mxCell>
        <mxCell id="ouK6QzMCspJjK9I2fayr-90" value="+store(data)" style="text;strokeColor=#82b366;fillColor=#d5e8d4;align=left;verticalAlign=top;spacingLeft=4;spacingRight=4;overflow=hidden;rotatable=0;points=[[0,0.5],[1,0.5]];portConstraint=eastwest;whiteSpace=wrap;html=1;" parent="ouK6QzMCspJjK9I2fayr-78" vertex="1">
          <mxGeometry y="320" width="220" height="26" as="geometry" />
        </mxCell>
        <mxCell id="ouK6QzMCspJjK9I2fayr-91" value="+destroy(id)" style="text;strokeColor=#82b366;fillColor=#d5e8d4;align=left;verticalAlign=top;spacingLeft=4;spacingRight=4;overflow=hidden;rotatable=0;points=[[0,0.5],[1,0.5]];portConstraint=eastwest;whiteSpace=wrap;html=1;" parent="ouK6QzMCspJjK9I2fayr-78" vertex="1">
          <mxGeometry y="346" width="220" height="26" as="geometry" />
        </mxCell>
        <mxCell id="ouK6QzMCspJjK9I2fayr-92" value="+update(id , data)" style="text;strokeColor=#82b366;fillColor=#d5e8d4;align=left;verticalAlign=top;spacingLeft=4;spacingRight=4;overflow=hidden;rotatable=0;points=[[0,0.5],[1,0.5]];portConstraint=eastwest;whiteSpace=wrap;html=1;" parent="ouK6QzMCspJjK9I2fayr-78" vertex="1">
          <mxGeometry y="372" width="220" height="26" as="geometry" />
        </mxCell>
        <mxCell id="ouK6QzMCspJjK9I2fayr-93" value="+listByUser(user_id)" style="text;strokeColor=#82b366;fillColor=#d5e8d4;align=left;verticalAlign=top;spacingLeft=4;spacingRight=4;overflow=hidden;rotatable=0;points=[[0,0.5],[1,0.5]];portConstraint=eastwest;whiteSpace=wrap;html=1;" parent="ouK6QzMCspJjK9I2fayr-78" vertex="1">
          <mxGeometry y="398" width="220" height="26" as="geometry" />
        </mxCell>
        <mxCell id="ouK6QzMCspJjK9I2fayr-94" value="+showToday()" style="text;strokeColor=#82b366;fillColor=#d5e8d4;align=left;verticalAlign=top;spacingLeft=4;spacingRight=4;overflow=hidden;rotatable=0;points=[[0,0.5],[1,0.5]];portConstraint=eastwest;whiteSpace=wrap;html=1;" parent="ouK6QzMCspJjK9I2fayr-78" vertex="1">
          <mxGeometry y="424" width="220" height="26" as="geometry" />
        </mxCell>
        <mxCell id="ouK6QzMCspJjK9I2fayr-97" value="-listByCategory(category_id)" style="text;strokeColor=#82b366;fillColor=#d5e8d4;align=left;verticalAlign=top;spacingLeft=4;spacingRight=4;overflow=hidden;rotatable=0;points=[[0,0.5],[1,0.5]];portConstraint=eastwest;whiteSpace=wrap;html=1;" parent="ouK6QzMCspJjK9I2fayr-78" vertex="1">
          <mxGeometry y="450" width="220" height="26" as="geometry" />
        </mxCell>
        <mxCell id="ouK6QzMCspJjK9I2fayr-98" value="Categories" style="swimlane;fontStyle=1;align=center;verticalAlign=top;childLayout=stackLayout;horizontal=1;startSize=26;horizontalStack=0;resizeParent=1;resizeParentMax=0;resizeLast=0;collapsible=1;marginBottom=0;whiteSpace=wrap;html=1;" parent="1" vertex="1">
          <mxGeometry x="-120" y="510" width="220" height="268" as="geometry" />
        </mxCell>
        <mxCell id="ouK6QzMCspJjK9I2fayr-99" value="-id: int" style="text;strokeColor=#B09500;fillColor=#e3c800;align=left;verticalAlign=top;spacingLeft=4;spacingRight=4;overflow=hidden;rotatable=0;points=[[0,0.5],[1,0.5]];portConstraint=eastwest;whiteSpace=wrap;html=1;fontColor=#000000;" parent="ouK6QzMCspJjK9I2fayr-98" vertex="1">
          <mxGeometry y="26" width="220" height="26" as="geometry" />
        </mxCell>
        <mxCell id="ouK6QzMCspJjK9I2fayr-102" value="-name:string" style="text;strokeColor=#36393d;fillColor=#eeeeee;align=left;verticalAlign=top;spacingLeft=4;spacingRight=4;overflow=hidden;rotatable=0;points=[[0,0.5],[1,0.5]];portConstraint=eastwest;whiteSpace=wrap;html=1;" parent="ouK6QzMCspJjK9I2fayr-98" vertex="1">
          <mxGeometry y="52" width="220" height="26" as="geometry" />
        </mxCell>
        <mxCell id="ouK6QzMCspJjK9I2fayr-104" value="-description" style="text;strokeColor=#36393d;fillColor=#eeeeee;align=left;verticalAlign=top;spacingLeft=4;spacingRight=4;overflow=hidden;rotatable=0;points=[[0,0.5],[1,0.5]];portConstraint=eastwest;whiteSpace=wrap;html=1;" parent="ouK6QzMCspJjK9I2fayr-98" vertex="1">
          <mxGeometry y="78" width="220" height="26" as="geometry" />
        </mxCell>
        <mxCell id="ouK6QzMCspJjK9I2fayr-107" value="" style="line;strokeWidth=1;fillColor=none;align=left;verticalAlign=middle;spacingTop=-1;spacingLeft=3;spacingRight=3;rotatable=0;labelPosition=right;points=[];portConstraint=eastwest;strokeColor=inherit;" parent="ouK6QzMCspJjK9I2fayr-98" vertex="1">
          <mxGeometry y="104" width="220" height="8" as="geometry" />
        </mxCell>
        <mxCell id="ouK6QzMCspJjK9I2fayr-108" value="+all()" style="text;strokeColor=#82b366;fillColor=#d5e8d4;align=left;verticalAlign=top;spacingLeft=4;spacingRight=4;overflow=hidden;rotatable=0;points=[[0,0.5],[1,0.5]];portConstraint=eastwest;whiteSpace=wrap;html=1;" parent="ouK6QzMCspJjK9I2fayr-98" vertex="1">
          <mxGeometry y="112" width="220" height="26" as="geometry" />
        </mxCell>
        <mxCell id="ouK6QzMCspJjK9I2fayr-109" value="+show(id)" style="text;strokeColor=#82b366;fillColor=#d5e8d4;align=left;verticalAlign=top;spacingLeft=4;spacingRight=4;overflow=hidden;rotatable=0;points=[[0,0.5],[1,0.5]];portConstraint=eastwest;whiteSpace=wrap;html=1;" parent="ouK6QzMCspJjK9I2fayr-98" vertex="1">
          <mxGeometry y="138" width="220" height="26" as="geometry" />
        </mxCell>
        <mxCell id="ouK6QzMCspJjK9I2fayr-110" value="+clear()" style="text;strokeColor=#82b366;fillColor=#d5e8d4;align=left;verticalAlign=top;spacingLeft=4;spacingRight=4;overflow=hidden;rotatable=0;points=[[0,0.5],[1,0.5]];portConstraint=eastwest;whiteSpace=wrap;html=1;" parent="ouK6QzMCspJjK9I2fayr-98" vertex="1">
          <mxGeometry y="164" width="220" height="26" as="geometry" />
        </mxCell>
        <mxCell id="ouK6QzMCspJjK9I2fayr-111" value="+store(data)" style="text;strokeColor=#82b366;fillColor=#d5e8d4;align=left;verticalAlign=top;spacingLeft=4;spacingRight=4;overflow=hidden;rotatable=0;points=[[0,0.5],[1,0.5]];portConstraint=eastwest;whiteSpace=wrap;html=1;" parent="ouK6QzMCspJjK9I2fayr-98" vertex="1">
          <mxGeometry y="190" width="220" height="26" as="geometry" />
        </mxCell>
        <mxCell id="ouK6QzMCspJjK9I2fayr-112" value="+destroy(id)" style="text;strokeColor=#82b366;fillColor=#d5e8d4;align=left;verticalAlign=top;spacingLeft=4;spacingRight=4;overflow=hidden;rotatable=0;points=[[0,0.5],[1,0.5]];portConstraint=eastwest;whiteSpace=wrap;html=1;" parent="ouK6QzMCspJjK9I2fayr-98" vertex="1">
          <mxGeometry y="216" width="220" height="26" as="geometry" />
        </mxCell>
        <mxCell id="ouK6QzMCspJjK9I2fayr-113" value="+update(id , data)" style="text;strokeColor=#82b366;fillColor=#d5e8d4;align=left;verticalAlign=top;spacingLeft=4;spacingRight=4;overflow=hidden;rotatable=0;points=[[0,0.5],[1,0.5]];portConstraint=eastwest;whiteSpace=wrap;html=1;" parent="ouK6QzMCspJjK9I2fayr-98" vertex="1">
          <mxGeometry y="242" width="220" height="26" as="geometry" />
        </mxCell>
        <mxCell id="ouK6QzMCspJjK9I2fayr-117" value="Reservations" style="swimlane;fontStyle=1;align=center;verticalAlign=top;childLayout=stackLayout;horizontal=1;startSize=26;horizontalStack=0;resizeParent=1;resizeParentMax=0;resizeLast=0;collapsible=1;marginBottom=0;whiteSpace=wrap;html=1;" parent="1" vertex="1">
          <mxGeometry x="-10" y="-940" width="260" height="268" as="geometry" />
        </mxCell>
        <mxCell id="ouK6QzMCspJjK9I2fayr-118" value="-id: int" style="text;strokeColor=#B09500;fillColor=#e3c800;align=left;verticalAlign=top;spacingLeft=4;spacingRight=4;overflow=hidden;rotatable=0;points=[[0,0.5],[1,0.5]];portConstraint=eastwest;whiteSpace=wrap;html=1;fontColor=#000000;" parent="ouK6QzMCspJjK9I2fayr-117" vertex="1">
          <mxGeometry y="26" width="260" height="26" as="geometry" />
        </mxCell>
        <mxCell id="ouK6QzMCspJjK9I2fayr-142" value="-menu_id:int" style="text;strokeColor=#36393d;fillColor=#cce5ff;align=left;verticalAlign=top;spacingLeft=4;spacingRight=4;overflow=hidden;rotatable=0;points=[[0,0.5],[1,0.5]];portConstraint=eastwest;whiteSpace=wrap;html=1;" parent="ouK6QzMCspJjK9I2fayr-117" vertex="1">
          <mxGeometry y="52" width="260" height="26" as="geometry" />
        </mxCell>
        <mxCell id="ouK6QzMCspJjK9I2fayr-140" value="-user_id:int" style="text;strokeColor=#36393d;fillColor=#cce5ff;align=left;verticalAlign=top;spacingLeft=4;spacingRight=4;overflow=hidden;rotatable=0;points=[[0,0.5],[1,0.5]];portConstraint=eastwest;whiteSpace=wrap;html=1;" parent="ouK6QzMCspJjK9I2fayr-117" vertex="1">
          <mxGeometry y="78" width="260" height="26" as="geometry" />
        </mxCell>
        <mxCell id="ouK6QzMCspJjK9I2fayr-119" value="-quantity" style="text;strokeColor=#36393d;fillColor=#eeeeee;align=left;verticalAlign=top;spacingLeft=4;spacingRight=4;overflow=hidden;rotatable=0;points=[[0,0.5],[1,0.5]];portConstraint=eastwest;whiteSpace=wrap;html=1;" parent="ouK6QzMCspJjK9I2fayr-117" vertex="1">
          <mxGeometry y="104" width="260" height="26" as="geometry" />
        </mxCell>
        <mxCell id="ouK6QzMCspJjK9I2fayr-121" value="" style="line;strokeWidth=1;fillColor=none;align=left;verticalAlign=middle;spacingTop=-1;spacingLeft=3;spacingRight=3;rotatable=0;labelPosition=right;points=[];portConstraint=eastwest;strokeColor=inherit;" parent="ouK6QzMCspJjK9I2fayr-117" vertex="1">
          <mxGeometry y="130" width="260" height="8" as="geometry" />
        </mxCell>
        <mxCell id="ouK6QzMCspJjK9I2fayr-122" value="+all()" style="text;strokeColor=#82b366;fillColor=#d5e8d4;align=left;verticalAlign=top;spacingLeft=4;spacingRight=4;overflow=hidden;rotatable=0;points=[[0,0.5],[1,0.5]];portConstraint=eastwest;whiteSpace=wrap;html=1;" parent="ouK6QzMCspJjK9I2fayr-117" vertex="1">
          <mxGeometry y="138" width="260" height="26" as="geometry" />
        </mxCell>
        <mxCell id="ouK6QzMCspJjK9I2fayr-123" value="+show(id)" style="text;strokeColor=#82b366;fillColor=#d5e8d4;align=left;verticalAlign=top;spacingLeft=4;spacingRight=4;overflow=hidden;rotatable=0;points=[[0,0.5],[1,0.5]];portConstraint=eastwest;whiteSpace=wrap;html=1;" parent="ouK6QzMCspJjK9I2fayr-117" vertex="1">
          <mxGeometry y="164" width="260" height="26" as="geometry" />
        </mxCell>
        <mxCell id="ouK6QzMCspJjK9I2fayr-124" value="+clear()" style="text;strokeColor=#82b366;fillColor=#d5e8d4;align=left;verticalAlign=top;spacingLeft=4;spacingRight=4;overflow=hidden;rotatable=0;points=[[0,0.5],[1,0.5]];portConstraint=eastwest;whiteSpace=wrap;html=1;" parent="ouK6QzMCspJjK9I2fayr-117" vertex="1">
          <mxGeometry y="190" width="260" height="26" as="geometry" />
        </mxCell>
        <mxCell id="ouK6QzMCspJjK9I2fayr-125" value="+store(data)" style="text;strokeColor=#82b366;fillColor=#d5e8d4;align=left;verticalAlign=top;spacingLeft=4;spacingRight=4;overflow=hidden;rotatable=0;points=[[0,0.5],[1,0.5]];portConstraint=eastwest;whiteSpace=wrap;html=1;" parent="ouK6QzMCspJjK9I2fayr-117" vertex="1">
          <mxGeometry y="216" width="260" height="26" as="geometry" />
        </mxCell>
        <mxCell id="ouK6QzMCspJjK9I2fayr-126" value="+destroy(id)" style="text;strokeColor=#82b366;fillColor=#d5e8d4;align=left;verticalAlign=top;spacingLeft=4;spacingRight=4;overflow=hidden;rotatable=0;points=[[0,0.5],[1,0.5]];portConstraint=eastwest;whiteSpace=wrap;html=1;" parent="ouK6QzMCspJjK9I2fayr-117" vertex="1">
          <mxGeometry y="242" width="260" height="26" as="geometry" />
        </mxCell>
        <mxCell id="ouK6QzMCspJjK9I2fayr-143" value="Tokens" style="swimlane;fontStyle=1;align=center;verticalAlign=top;childLayout=stackLayout;horizontal=1;startSize=26;horizontalStack=0;resizeParent=1;resizeParentMax=0;resizeLast=0;collapsible=1;marginBottom=0;whiteSpace=wrap;html=1;" parent="1" vertex="1">
          <mxGeometry x="1490" y="-620" width="260" height="398" as="geometry" />
        </mxCell>
        <mxCell id="ouK6QzMCspJjK9I2fayr-156" value="-ip:string" style="text;strokeColor=#36393d;fillColor=#eeeeee;align=left;verticalAlign=top;spacingLeft=4;spacingRight=4;overflow=hidden;rotatable=0;points=[[0,0.5],[1,0.5]];portConstraint=eastwest;whiteSpace=wrap;html=1;" parent="ouK6QzMCspJjK9I2fayr-143" vertex="1">
          <mxGeometry y="26" width="260" height="26" as="geometry" />
        </mxCell>
        <mxCell id="ouK6QzMCspJjK9I2fayr-158" value="-device:string" style="text;strokeColor=#36393d;fillColor=#eeeeee;align=left;verticalAlign=top;spacingLeft=4;spacingRight=4;overflow=hidden;rotatable=0;points=[[0,0.5],[1,0.5]];portConstraint=eastwest;whiteSpace=wrap;html=1;" parent="ouK6QzMCspJjK9I2fayr-143" vertex="1">
          <mxGeometry y="52" width="260" height="26" as="geometry" />
        </mxCell>
        <mxCell id="ouK6QzMCspJjK9I2fayr-160" value="-location:string" style="text;strokeColor=#36393d;fillColor=#eeeeee;align=left;verticalAlign=top;spacingLeft=4;spacingRight=4;overflow=hidden;rotatable=0;points=[[0,0.5],[1,0.5]];portConstraint=eastwest;whiteSpace=wrap;html=1;" parent="ouK6QzMCspJjK9I2fayr-143" vertex="1">
          <mxGeometry y="78" width="260" height="26" as="geometry" />
        </mxCell>
        <mxCell id="ouK6QzMCspJjK9I2fayr-159" value="-platform:string" style="text;strokeColor=#36393d;fillColor=#eeeeee;align=left;verticalAlign=top;spacingLeft=4;spacingRight=4;overflow=hidden;rotatable=0;points=[[0,0.5],[1,0.5]];portConstraint=eastwest;whiteSpace=wrap;html=1;" parent="ouK6QzMCspJjK9I2fayr-143" vertex="1">
          <mxGeometry y="104" width="260" height="26" as="geometry" />
        </mxCell>
        <mxCell id="ouK6QzMCspJjK9I2fayr-157" value="-browser:string" style="text;strokeColor=#36393d;fillColor=#eeeeee;align=left;verticalAlign=top;spacingLeft=4;spacingRight=4;overflow=hidden;rotatable=0;points=[[0,0.5],[1,0.5]];portConstraint=eastwest;whiteSpace=wrap;html=1;" parent="ouK6QzMCspJjK9I2fayr-143" vertex="1">
          <mxGeometry y="130" width="260" height="26" as="geometry" />
        </mxCell>
        <mxCell id="ouK6QzMCspJjK9I2fayr-154" value="-expires_at : datetime" style="text;strokeColor=#36393d;fillColor=#eeeeee;align=left;verticalAlign=top;spacingLeft=4;spacingRight=4;overflow=hidden;rotatable=0;points=[[0,0.5],[1,0.5]];portConstraint=eastwest;whiteSpace=wrap;html=1;" parent="ouK6QzMCspJjK9I2fayr-143" vertex="1">
          <mxGeometry y="156" width="260" height="26" as="geometry" />
        </mxCell>
        <mxCell id="ouK6QzMCspJjK9I2fayr-155" value="-network:string" style="text;strokeColor=#36393d;fillColor=#eeeeee;align=left;verticalAlign=top;spacingLeft=4;spacingRight=4;overflow=hidden;rotatable=0;points=[[0,0.5],[1,0.5]];portConstraint=eastwest;whiteSpace=wrap;html=1;" parent="ouK6QzMCspJjK9I2fayr-143" vertex="1">
          <mxGeometry y="182" width="260" height="26" as="geometry" />
        </mxCell>
        <mxCell id="ouK6QzMCspJjK9I2fayr-147" value="-code:string" style="text;strokeColor=#36393d;fillColor=#eeeeee;align=left;verticalAlign=top;spacingLeft=4;spacingRight=4;overflow=hidden;rotatable=0;points=[[0,0.5],[1,0.5]];portConstraint=eastwest;whiteSpace=wrap;html=1;" parent="ouK6QzMCspJjK9I2fayr-143" vertex="1">
          <mxGeometry y="208" width="260" height="26" as="geometry" />
        </mxCell>
        <mxCell id="ouK6QzMCspJjK9I2fayr-148" value="" style="line;strokeWidth=1;fillColor=none;align=left;verticalAlign=middle;spacingTop=-1;spacingLeft=3;spacingRight=3;rotatable=0;labelPosition=right;points=[];portConstraint=eastwest;strokeColor=inherit;" parent="ouK6QzMCspJjK9I2fayr-143" vertex="1">
          <mxGeometry y="234" width="260" height="8" as="geometry" />
        </mxCell>
        <mxCell id="ouK6QzMCspJjK9I2fayr-161" value="+show(id)" style="text;strokeColor=#82b366;fillColor=#d5e8d4;align=left;verticalAlign=top;spacingLeft=4;spacingRight=4;overflow=hidden;rotatable=0;points=[[0,0.5],[1,0.5]];portConstraint=eastwest;whiteSpace=wrap;html=1;" parent="ouK6QzMCspJjK9I2fayr-143" vertex="1">
          <mxGeometry y="242" width="260" height="26" as="geometry" />
        </mxCell>
        <mxCell id="ouK6QzMCspJjK9I2fayr-162" value="+destroy(id)" style="text;strokeColor=#82b366;fillColor=#d5e8d4;align=left;verticalAlign=top;spacingLeft=4;spacingRight=4;overflow=hidden;rotatable=0;points=[[0,0.5],[1,0.5]];portConstraint=eastwest;whiteSpace=wrap;html=1;" parent="ouK6QzMCspJjK9I2fayr-143" vertex="1">
          <mxGeometry y="268" width="260" height="26" as="geometry" />
        </mxCell>
        <mxCell id="ouK6QzMCspJjK9I2fayr-164" value="+update(id , data)" style="text;strokeColor=#82b366;fillColor=#d5e8d4;align=left;verticalAlign=top;spacingLeft=4;spacingRight=4;overflow=hidden;rotatable=0;points=[[0,0.5],[1,0.5]];portConstraint=eastwest;whiteSpace=wrap;html=1;" parent="ouK6QzMCspJjK9I2fayr-143" vertex="1">
          <mxGeometry y="294" width="260" height="26" as="geometry" />
        </mxCell>
        <mxCell id="ouK6QzMCspJjK9I2fayr-149" value="+tokenValidated()" style="text;strokeColor=#82b366;fillColor=#d5e8d4;align=left;verticalAlign=top;spacingLeft=4;spacingRight=4;overflow=hidden;rotatable=0;points=[[0,0.5],[1,0.5]];portConstraint=eastwest;whiteSpace=wrap;html=1;" parent="ouK6QzMCspJjK9I2fayr-143" vertex="1">
          <mxGeometry y="320" width="260" height="26" as="geometry" />
        </mxCell>
        <mxCell id="ouK6QzMCspJjK9I2fayr-150" value="+generateToken()" style="text;strokeColor=#82b366;fillColor=#d5e8d4;align=left;verticalAlign=top;spacingLeft=4;spacingRight=4;overflow=hidden;rotatable=0;points=[[0,0.5],[1,0.5]];portConstraint=eastwest;whiteSpace=wrap;html=1;" parent="ouK6QzMCspJjK9I2fayr-143" vertex="1">
          <mxGeometry y="346" width="260" height="26" as="geometry" />
        </mxCell>
        <mxCell id="ouK6QzMCspJjK9I2fayr-151" value="+checkToken()" style="text;strokeColor=#82b366;fillColor=#d5e8d4;align=left;verticalAlign=top;spacingLeft=4;spacingRight=4;overflow=hidden;rotatable=0;points=[[0,0.5],[1,0.5]];portConstraint=eastwest;whiteSpace=wrap;html=1;" parent="ouK6QzMCspJjK9I2fayr-143" vertex="1">
          <mxGeometry y="372" width="260" height="26" as="geometry" />
        </mxCell>
        <mxCell id="ouK6QzMCspJjK9I2fayr-165" value="Pcontrollers" style="swimlane;fontStyle=1;align=center;verticalAlign=top;childLayout=stackLayout;horizontal=1;startSize=26;horizontalStack=0;resizeParent=1;resizeParentMax=0;resizeLast=0;collapsible=1;marginBottom=0;whiteSpace=wrap;html=1;" parent="1" vertex="1">
          <mxGeometry x="1790" y="-150" width="260" height="138" as="geometry" />
        </mxCell>
        <mxCell id="ouK6QzMCspJjK9I2fayr-166" value="-id: int" style="text;strokeColor=#B09500;fillColor=#e3c800;align=left;verticalAlign=top;spacingLeft=4;spacingRight=4;overflow=hidden;rotatable=0;points=[[0,0.5],[1,0.5]];portConstraint=eastwest;whiteSpace=wrap;html=1;fontColor=#000000;" parent="ouK6QzMCspJjK9I2fayr-165" vertex="1">
          <mxGeometry y="26" width="260" height="26" as="geometry" />
        </mxCell>
        <mxCell id="ouK6QzMCspJjK9I2fayr-144" value="-id: int" style="text;strokeColor=#B09500;fillColor=#e3c800;align=left;verticalAlign=top;spacingLeft=4;spacingRight=4;overflow=hidden;rotatable=0;points=[[0,0.5],[1,0.5]];portConstraint=eastwest;whiteSpace=wrap;html=1;fontColor=#000000;" parent="ouK6QzMCspJjK9I2fayr-165" vertex="1">
          <mxGeometry y="52" width="260" height="26" as="geometry" />
        </mxCell>
        <mxCell id="ouK6QzMCspJjK9I2fayr-167" value="-name:string" style="text;strokeColor=#36393d;fillColor=#eeeeee;align=left;verticalAlign=top;spacingLeft=4;spacingRight=4;overflow=hidden;rotatable=0;points=[[0,0.5],[1,0.5]];portConstraint=eastwest;whiteSpace=wrap;html=1;" parent="ouK6QzMCspJjK9I2fayr-165" vertex="1">
          <mxGeometry y="78" width="260" height="26" as="geometry" />
        </mxCell>
        <mxCell id="ouK6QzMCspJjK9I2fayr-168" value="-description" style="text;strokeColor=#36393d;fillColor=#eeeeee;align=left;verticalAlign=top;spacingLeft=4;spacingRight=4;overflow=hidden;rotatable=0;points=[[0,0.5],[1,0.5]];portConstraint=eastwest;whiteSpace=wrap;html=1;" parent="ouK6QzMCspJjK9I2fayr-165" vertex="1">
          <mxGeometry y="104" width="260" height="26" as="geometry" />
        </mxCell>
        <mxCell id="ouK6QzMCspJjK9I2fayr-169" value="" style="line;strokeWidth=1;fillColor=none;align=left;verticalAlign=middle;spacingTop=-1;spacingLeft=3;spacingRight=3;rotatable=0;labelPosition=right;points=[];portConstraint=eastwest;strokeColor=inherit;" parent="ouK6QzMCspJjK9I2fayr-165" vertex="1">
          <mxGeometry y="130" width="260" height="8" as="geometry" />
        </mxCell>
        <mxCell id="ouK6QzMCspJjK9I2fayr-176" value="Pmethode" style="swimlane;fontStyle=1;align=center;verticalAlign=top;childLayout=stackLayout;horizontal=1;startSize=26;horizontalStack=0;resizeParent=1;resizeParentMax=0;resizeLast=0;collapsible=1;marginBottom=0;whiteSpace=wrap;html=1;" parent="1" vertex="1">
          <mxGeometry x="1780" y="110" width="260" height="112" as="geometry" />
        </mxCell>
        <mxCell id="ouK6QzMCspJjK9I2fayr-177" value="-id: int" style="text;strokeColor=#B09500;fillColor=#e3c800;align=left;verticalAlign=top;spacingLeft=4;spacingRight=4;overflow=hidden;rotatable=0;points=[[0,0.5],[1,0.5]];portConstraint=eastwest;whiteSpace=wrap;html=1;fontColor=#000000;" parent="ouK6QzMCspJjK9I2fayr-176" vertex="1">
          <mxGeometry y="26" width="260" height="26" as="geometry" />
        </mxCell>
        <mxCell id="ouK6QzMCspJjK9I2fayr-178" value="-name:string" style="text;strokeColor=#36393d;fillColor=#eeeeee;align=left;verticalAlign=top;spacingLeft=4;spacingRight=4;overflow=hidden;rotatable=0;points=[[0,0.5],[1,0.5]];portConstraint=eastwest;whiteSpace=wrap;html=1;" parent="ouK6QzMCspJjK9I2fayr-176" vertex="1">
          <mxGeometry y="52" width="260" height="26" as="geometry" />
        </mxCell>
        <mxCell id="ouK6QzMCspJjK9I2fayr-179" value="-description" style="text;strokeColor=#36393d;fillColor=#eeeeee;align=left;verticalAlign=top;spacingLeft=4;spacingRight=4;overflow=hidden;rotatable=0;points=[[0,0.5],[1,0.5]];portConstraint=eastwest;whiteSpace=wrap;html=1;" parent="ouK6QzMCspJjK9I2fayr-176" vertex="1">
          <mxGeometry y="78" width="260" height="26" as="geometry" />
        </mxCell>
        <mxCell id="ouK6QzMCspJjK9I2fayr-180" value="" style="line;strokeWidth=1;fillColor=none;align=left;verticalAlign=middle;spacingTop=-1;spacingLeft=3;spacingRight=3;rotatable=0;labelPosition=right;points=[];portConstraint=eastwest;strokeColor=inherit;" parent="ouK6QzMCspJjK9I2fayr-176" vertex="1">
          <mxGeometry y="104" width="260" height="8" as="geometry" />
        </mxCell>
        <mxCell id="ouK6QzMCspJjK9I2fayr-203" value="Roles" style="swimlane;fontStyle=1;align=center;verticalAlign=top;childLayout=stackLayout;horizontal=1;startSize=26;horizontalStack=0;resizeParent=1;resizeParentMax=0;resizeLast=0;collapsible=1;marginBottom=0;whiteSpace=wrap;html=1;" parent="1" vertex="1">
          <mxGeometry x="1130" y="-604" width="260" height="112" as="geometry" />
        </mxCell>
        <mxCell id="ouK6QzMCspJjK9I2fayr-204" value="-id: int" style="text;strokeColor=#B09500;fillColor=#e3c800;align=left;verticalAlign=top;spacingLeft=4;spacingRight=4;overflow=hidden;rotatable=0;points=[[0,0.5],[1,0.5]];portConstraint=eastwest;whiteSpace=wrap;html=1;fontColor=#000000;" parent="ouK6QzMCspJjK9I2fayr-203" vertex="1">
          <mxGeometry y="26" width="260" height="26" as="geometry" />
        </mxCell>
        <mxCell id="ouK6QzMCspJjK9I2fayr-205" value="-name:string" style="text;strokeColor=#36393d;fillColor=#eeeeee;align=left;verticalAlign=top;spacingLeft=4;spacingRight=4;overflow=hidden;rotatable=0;points=[[0,0.5],[1,0.5]];portConstraint=eastwest;whiteSpace=wrap;html=1;" parent="ouK6QzMCspJjK9I2fayr-203" vertex="1">
          <mxGeometry y="52" width="260" height="26" as="geometry" />
        </mxCell>
        <mxCell id="ouK6QzMCspJjK9I2fayr-206" value="-description" style="text;strokeColor=#36393d;fillColor=#eeeeee;align=left;verticalAlign=top;spacingLeft=4;spacingRight=4;overflow=hidden;rotatable=0;points=[[0,0.5],[1,0.5]];portConstraint=eastwest;whiteSpace=wrap;html=1;" parent="ouK6QzMCspJjK9I2fayr-203" vertex="1">
          <mxGeometry y="78" width="260" height="26" as="geometry" />
        </mxCell>
        <mxCell id="ouK6QzMCspJjK9I2fayr-207" value="" style="line;strokeWidth=1;fillColor=none;align=left;verticalAlign=middle;spacingTop=-1;spacingLeft=3;spacingRight=3;rotatable=0;labelPosition=right;points=[];portConstraint=eastwest;strokeColor=inherit;" parent="ouK6QzMCspJjK9I2fayr-203" vertex="1">
          <mxGeometry y="104" width="260" height="8" as="geometry" />
        </mxCell>
        <mxCell id="ouK6QzMCspJjK9I2fayr-302" value="Permissions" style="swimlane;fontStyle=1;align=center;verticalAlign=top;childLayout=stackLayout;horizontal=1;startSize=26;horizontalStack=0;resizeParent=1;resizeParentMax=0;resizeLast=0;collapsible=1;marginBottom=0;whiteSpace=wrap;html=1;" parent="1" vertex="1">
          <mxGeometry x="1300" y="-142" width="260" height="242" as="geometry" />
        </mxCell>
        <mxCell id="ouK6QzMCspJjK9I2fayr-303" value="-id: int" style="text;strokeColor=#B09500;fillColor=#e3c800;align=left;verticalAlign=top;spacingLeft=4;spacingRight=4;overflow=hidden;rotatable=0;points=[[0,0.5],[1,0.5]];portConstraint=eastwest;whiteSpace=wrap;html=1;fontColor=#000000;" parent="ouK6QzMCspJjK9I2fayr-302" vertex="1">
          <mxGeometry y="26" width="260" height="26" as="geometry" />
        </mxCell>
        <mxCell id="ouK6QzMCspJjK9I2fayr-305" value="-user_id:int" style="text;strokeColor=#36393d;fillColor=#cce5ff;align=left;verticalAlign=top;spacingLeft=4;spacingRight=4;overflow=hidden;rotatable=0;points=[[0,0.5],[1,0.5]];portConstraint=eastwest;whiteSpace=wrap;html=1;" parent="ouK6QzMCspJjK9I2fayr-302" vertex="1">
          <mxGeometry y="52" width="260" height="26" as="geometry" />
        </mxCell>
        <mxCell id="ouK6QzMCspJjK9I2fayr-304" value="-pcontroller_id:int" style="text;strokeColor=#36393d;fillColor=#cce5ff;align=left;verticalAlign=top;spacingLeft=4;spacingRight=4;overflow=hidden;rotatable=0;points=[[0,0.5],[1,0.5]];portConstraint=eastwest;whiteSpace=wrap;html=1;" parent="ouK6QzMCspJjK9I2fayr-302" vertex="1">
          <mxGeometry y="78" width="260" height="26" as="geometry" />
        </mxCell>
        <mxCell id="ouK6QzMCspJjK9I2fayr-313" value="-pmethode_id:int" style="text;strokeColor=#36393d;fillColor=#cce5ff;align=left;verticalAlign=top;spacingLeft=4;spacingRight=4;overflow=hidden;rotatable=0;points=[[0,0.5],[1,0.5]];portConstraint=eastwest;whiteSpace=wrap;html=1;" parent="ouK6QzMCspJjK9I2fayr-302" vertex="1">
          <mxGeometry y="104" width="260" height="26" as="geometry" />
        </mxCell>
        <mxCell id="ouK6QzMCspJjK9I2fayr-307" value="" style="line;strokeWidth=1;fillColor=none;align=left;verticalAlign=middle;spacingTop=-1;spacingLeft=3;spacingRight=3;rotatable=0;labelPosition=right;points=[];portConstraint=eastwest;strokeColor=inherit;" parent="ouK6QzMCspJjK9I2fayr-302" vertex="1">
          <mxGeometry y="130" width="260" height="8" as="geometry" />
        </mxCell>
        <mxCell id="ouK6QzMCspJjK9I2fayr-308" value="+getPermissions()" style="text;strokeColor=#82b366;fillColor=#d5e8d4;align=left;verticalAlign=top;spacingLeft=4;spacingRight=4;overflow=hidden;rotatable=0;points=[[0,0.5],[1,0.5]];portConstraint=eastwest;whiteSpace=wrap;html=1;" parent="ouK6QzMCspJjK9I2fayr-302" vertex="1">
          <mxGeometry y="138" width="260" height="26" as="geometry" />
        </mxCell>
        <mxCell id="ouK6QzMCspJjK9I2fayr-311" value="+store(data)" style="text;strokeColor=#82b366;fillColor=#d5e8d4;align=left;verticalAlign=top;spacingLeft=4;spacingRight=4;overflow=hidden;rotatable=0;points=[[0,0.5],[1,0.5]];portConstraint=eastwest;whiteSpace=wrap;html=1;" parent="ouK6QzMCspJjK9I2fayr-302" vertex="1">
          <mxGeometry y="164" width="260" height="26" as="geometry" />
        </mxCell>
        <mxCell id="ouK6QzMCspJjK9I2fayr-312" value="+destroy(id)" style="text;strokeColor=#82b366;fillColor=#d5e8d4;align=left;verticalAlign=top;spacingLeft=4;spacingRight=4;overflow=hidden;rotatable=0;points=[[0,0.5],[1,0.5]];portConstraint=eastwest;whiteSpace=wrap;html=1;" parent="ouK6QzMCspJjK9I2fayr-302" vertex="1">
          <mxGeometry y="190" width="260" height="26" as="geometry" />
        </mxCell>
        <mxCell id="ouK6QzMCspJjK9I2fayr-314" value="+CheckAccess()" style="text;strokeColor=#82b366;fillColor=#d5e8d4;align=left;verticalAlign=top;spacingLeft=4;spacingRight=4;overflow=hidden;rotatable=0;points=[[0,0.5],[1,0.5]];portConstraint=eastwest;whiteSpace=wrap;html=1;" parent="ouK6QzMCspJjK9I2fayr-302" vertex="1">
          <mxGeometry y="216" width="260" height="26" as="geometry" />
        </mxCell>
        <mxCell id="ouK6QzMCspJjK9I2fayr-319" value="Meals_Meanus" style="swimlane;fontStyle=1;align=center;verticalAlign=top;childLayout=stackLayout;horizontal=1;startSize=26;horizontalStack=0;resizeParent=1;resizeParentMax=0;resizeLast=0;collapsible=1;marginBottom=0;whiteSpace=wrap;html=1;" parent="1" vertex="1">
          <mxGeometry x="-1120" y="-160" width="260" height="138" as="geometry" />
        </mxCell>
        <mxCell id="ouK6QzMCspJjK9I2fayr-320" value="-id: int" style="text;strokeColor=#B09500;fillColor=#e3c800;align=left;verticalAlign=top;spacingLeft=4;spacingRight=4;overflow=hidden;rotatable=0;points=[[0,0.5],[1,0.5]];portConstraint=eastwest;whiteSpace=wrap;html=1;fontColor=#000000;" parent="ouK6QzMCspJjK9I2fayr-319" vertex="1">
          <mxGeometry y="26" width="260" height="26" as="geometry" />
        </mxCell>
        <mxCell id="ouK6QzMCspJjK9I2fayr-321" value="-menu_id:int" style="text;strokeColor=#36393d;fillColor=#cce5ff;align=left;verticalAlign=top;spacingLeft=4;spacingRight=4;overflow=hidden;rotatable=0;points=[[0,0.5],[1,0.5]];portConstraint=eastwest;whiteSpace=wrap;html=1;" parent="ouK6QzMCspJjK9I2fayr-319" vertex="1">
          <mxGeometry y="52" width="260" height="26" as="geometry" />
        </mxCell>
        <mxCell id="ouK6QzMCspJjK9I2fayr-322" value="-meal_id:int" style="text;strokeColor=#36393d;fillColor=#cce5ff;align=left;verticalAlign=top;spacingLeft=4;spacingRight=4;overflow=hidden;rotatable=0;points=[[0,0.5],[1,0.5]];portConstraint=eastwest;whiteSpace=wrap;html=1;" parent="ouK6QzMCspJjK9I2fayr-319" vertex="1">
          <mxGeometry y="78" width="260" height="26" as="geometry" />
        </mxCell>
        <mxCell id="ouK6QzMCspJjK9I2fayr-323" value="-quantity" style="text;strokeColor=#36393d;fillColor=#eeeeee;align=left;verticalAlign=top;spacingLeft=4;spacingRight=4;overflow=hidden;rotatable=0;points=[[0,0.5],[1,0.5]];portConstraint=eastwest;whiteSpace=wrap;html=1;" parent="ouK6QzMCspJjK9I2fayr-319" vertex="1">
          <mxGeometry y="104" width="260" height="26" as="geometry" />
        </mxCell>
        <mxCell id="ouK6QzMCspJjK9I2fayr-324" value="" style="line;strokeWidth=1;fillColor=none;align=left;verticalAlign=middle;spacingTop=-1;spacingLeft=3;spacingRight=3;rotatable=0;labelPosition=right;points=[];portConstraint=eastwest;strokeColor=inherit;" parent="ouK6QzMCspJjK9I2fayr-319" vertex="1">
          <mxGeometry y="130" width="260" height="8" as="geometry" />
        </mxCell>
        <mxCell id="ouK6QzMCspJjK9I2fayr-348" value="" style="endArrow=diamondThin;html=1;endSize=12;startArrow=none;startSize=14;startFill=0;rounded=0;endFill=1;exitX=0;exitY=0.5;exitDx=0;exitDy=0;" parent="1" source="ouK6QzMCspJjK9I2fayr-305" target="lPbnV7JKpfbCIfiGn8R--153" edge="1">
          <mxGeometry relative="1" as="geometry">
            <mxPoint x="370" y="-200" as="sourcePoint" />
            <mxPoint x="530" y="-200" as="targetPoint" />
          </mxGeometry>
        </mxCell>
        <mxCell id="ouK6QzMCspJjK9I2fayr-349" value="0..*" style="edgeLabel;resizable=0;html=1;align=left;verticalAlign=top;" parent="ouK6QzMCspJjK9I2fayr-348" connectable="0" vertex="1">
          <mxGeometry x="-1" relative="1" as="geometry">
            <mxPoint x="-30" y="20" as="offset" />
          </mxGeometry>
        </mxCell>
        <mxCell id="ouK6QzMCspJjK9I2fayr-350" value="0..*" style="edgeLabel;resizable=0;html=1;align=right;verticalAlign=top;" parent="ouK6QzMCspJjK9I2fayr-348" connectable="0" vertex="1">
          <mxGeometry x="1" relative="1" as="geometry">
            <mxPoint x="28" y="6" as="offset" />
          </mxGeometry>
        </mxCell>
        <mxCell id="ouK6QzMCspJjK9I2fayr-432" value="" style="endArrow=diamondThin;html=1;endSize=12;startArrow=none;startSize=14;startFill=0;rounded=0;endFill=0;entryX=1;entryY=0.5;entryDx=0;entryDy=0;" parent="1" source="ouK6QzMCspJjK9I2fayr-165" target="ouK6QzMCspJjK9I2fayr-304" edge="1">
          <mxGeometry relative="1" as="geometry">
            <mxPoint x="454" y="-37" as="sourcePoint" />
            <mxPoint x="730" y="15" as="targetPoint" />
          </mxGeometry>
        </mxCell>
        <mxCell id="ouK6QzMCspJjK9I2fayr-433" value="0..*" style="edgeLabel;resizable=0;html=1;align=left;verticalAlign=top;" parent="ouK6QzMCspJjK9I2fayr-432" connectable="0" vertex="1">
          <mxGeometry x="-1" relative="1" as="geometry">
            <mxPoint x="-27" y="8" as="offset" />
          </mxGeometry>
        </mxCell>
        <mxCell id="ouK6QzMCspJjK9I2fayr-434" value="0..*" style="edgeLabel;resizable=0;html=1;align=right;verticalAlign=top;" parent="ouK6QzMCspJjK9I2fayr-432" connectable="0" vertex="1">
          <mxGeometry x="1" relative="1" as="geometry">
            <mxPoint x="50" y="-16" as="offset" />
          </mxGeometry>
        </mxCell>
        <mxCell id="ouK6QzMCspJjK9I2fayr-435" value="" style="endArrow=diamondThin;html=1;endSize=12;startArrow=none;startSize=14;startFill=0;rounded=0;endFill=0;entryX=1.001;entryY=0.318;entryDx=0;entryDy=0;entryPerimeter=0;" parent="1" source="ouK6QzMCspJjK9I2fayr-176" target="ouK6QzMCspJjK9I2fayr-313" edge="1">
          <mxGeometry relative="1" as="geometry">
            <mxPoint x="1077" y="-92" as="sourcePoint" />
            <mxPoint x="870" y="21" as="targetPoint" />
          </mxGeometry>
        </mxCell>
        <mxCell id="ouK6QzMCspJjK9I2fayr-436" value="0..*" style="edgeLabel;resizable=0;html=1;align=left;verticalAlign=top;" parent="ouK6QzMCspJjK9I2fayr-435" connectable="0" vertex="1">
          <mxGeometry x="-1" relative="1" as="geometry">
            <mxPoint x="-26" y="-3" as="offset" />
          </mxGeometry>
        </mxCell>
        <mxCell id="ouK6QzMCspJjK9I2fayr-437" value="0..*" style="edgeLabel;resizable=0;html=1;align=right;verticalAlign=top;" parent="ouK6QzMCspJjK9I2fayr-435" connectable="0" vertex="1">
          <mxGeometry x="1" relative="1" as="geometry">
            <mxPoint x="40" y="13" as="offset" />
          </mxGeometry>
        </mxCell>
        <mxCell id="ouK6QzMCspJjK9I2fayr-439" value="&lt;div style=&quot;color: rgb(212, 212, 212); background-color: rgb(30, 30, 30); font-family: Consolas, &amp;quot;Courier New&amp;quot;, monospace; font-weight: normal; font-size: 15px; line-height: 20px;&quot;&gt;&lt;div&gt;&lt;span style=&quot;color: #6a9955;&quot;&gt;!!! 1: pcontroller and pmethode is static data alredy exist in database can&#39;t be deleted or updated&lt;/span&gt;&lt;/div&gt;&lt;div&gt;&lt;span style=&quot;color: #6a9955;&quot;&gt;!!! 2: user is dynamic data can be deleted or updated or created&lt;/span&gt;&lt;/div&gt;&lt;div&gt;&lt;span style=&quot;color: #6a9955;&quot;&gt;!!! 3: permissions can created automatically when user created and deleted automatically when user deleted&amp;nbsp;&amp;nbsp;&lt;/span&gt;&lt;/div&gt;&lt;br&gt;&lt;/div&gt;" style="text;whiteSpace=wrap;html=1;" parent="1" vertex="1">
          <mxGeometry x="-2220" y="-820" width="900" height="110" as="geometry" />
        </mxCell>
        <mxCell id="ouK6QzMCspJjK9I2fayr-445" value="" style="endArrow=diamondThin;html=1;endSize=12;startArrow=none;startSize=14;startFill=0;rounded=0;endFill=0;entryX=1;entryY=0.5;entryDx=0;entryDy=0;" parent="1" source="ouK6QzMCspJjK9I2fayr-203" target="lPbnV7JKpfbCIfiGn8R--157" edge="1">
          <mxGeometry relative="1" as="geometry">
            <mxPoint x="107" y="-139" as="sourcePoint" />
            <mxPoint x="-40" y="-190" as="targetPoint" />
          </mxGeometry>
        </mxCell>
        <mxCell id="ouK6QzMCspJjK9I2fayr-446" value="0..*" style="edgeLabel;resizable=0;html=1;align=left;verticalAlign=top;" parent="ouK6QzMCspJjK9I2fayr-445" connectable="0" vertex="1">
          <mxGeometry x="-1" relative="1" as="geometry">
            <mxPoint x="8" y="7" as="offset" />
          </mxGeometry>
        </mxCell>
        <mxCell id="ouK6QzMCspJjK9I2fayr-447" value="1..1" style="edgeLabel;resizable=0;html=1;align=right;verticalAlign=top;" parent="ouK6QzMCspJjK9I2fayr-445" connectable="0" vertex="1">
          <mxGeometry x="1" relative="1" as="geometry">
            <mxPoint x="43" y="-20" as="offset" />
          </mxGeometry>
        </mxCell>
        <mxCell id="ouK6QzMCspJjK9I2fayr-449" value="" style="endArrow=diamondThin;html=1;endSize=12;startArrow=none;startSize=14;startFill=0;rounded=0;endFill=1;entryX=1;entryY=0.5;entryDx=0;entryDy=0;" parent="1" source="ouK6QzMCspJjK9I2fayr-143" target="lPbnV7JKpfbCIfiGn8R--158" edge="1">
          <mxGeometry relative="1" as="geometry">
            <mxPoint x="-8" y="-57" as="sourcePoint" />
            <mxPoint x="200" y="-5" as="targetPoint" />
          </mxGeometry>
        </mxCell>
        <mxCell id="ouK6QzMCspJjK9I2fayr-450" value="1..1" style="edgeLabel;resizable=0;html=1;align=left;verticalAlign=top;" parent="ouK6QzMCspJjK9I2fayr-449" connectable="0" vertex="1">
          <mxGeometry x="-1" relative="1" as="geometry">
            <mxPoint x="-40" y="-21" as="offset" />
          </mxGeometry>
        </mxCell>
        <mxCell id="ouK6QzMCspJjK9I2fayr-451" value="1..1" style="edgeLabel;resizable=0;html=1;align=right;verticalAlign=top;" parent="ouK6QzMCspJjK9I2fayr-449" connectable="0" vertex="1">
          <mxGeometry x="1" relative="1" as="geometry">
            <mxPoint x="43" y="4" as="offset" />
          </mxGeometry>
        </mxCell>
        <mxCell id="ouK6QzMCspJjK9I2fayr-455" value="create" style="endArrow=open;html=1;endSize=12;startArrow=none;startSize=14;startFill=0;rounded=0;" parent="1" source="lPbnV7JKpfbCIfiGn8R--153" target="ouK6QzMCspJjK9I2fayr-78" edge="1">
          <mxGeometry relative="1" as="geometry">
            <mxPoint x="254" y="230" as="sourcePoint" />
            <mxPoint x="414" y="230" as="targetPoint" />
            <Array as="points">
              <mxPoint x="120" y="360" />
            </Array>
          </mxGeometry>
        </mxCell>
        <mxCell id="ouK6QzMCspJjK9I2fayr-456" value="0..*" style="edgeLabel;resizable=0;html=1;align=left;verticalAlign=top;" parent="ouK6QzMCspJjK9I2fayr-455" connectable="0" vertex="1">
          <mxGeometry x="-1" relative="1" as="geometry">
            <mxPoint x="-37" y="-36" as="offset" />
          </mxGeometry>
        </mxCell>
        <mxCell id="ouK6QzMCspJjK9I2fayr-457" value="1..1" style="edgeLabel;resizable=0;html=1;align=right;verticalAlign=top;" parent="ouK6QzMCspJjK9I2fayr-455" connectable="0" vertex="1">
          <mxGeometry x="1" relative="1" as="geometry">
            <mxPoint x="40" y="3" as="offset" />
          </mxGeometry>
        </mxCell>
        <mxCell id="ouK6QzMCspJjK9I2fayr-480" value="create" style="endArrow=open;html=1;endSize=12;startArrow=none;startSize=14;startFill=0;rounded=0;entryX=0.75;entryY=0;entryDx=0;entryDy=0;" parent="1" source="lPbnV7JKpfbCIfiGn8R--153" target="ouK6QzMCspJjK9I2fayr-98" edge="1">
          <mxGeometry relative="1" as="geometry">
            <mxPoint x="460" y="-160" as="sourcePoint" />
            <mxPoint x="-160" y="-16" as="targetPoint" />
            <Array as="points" />
          </mxGeometry>
        </mxCell>
        <mxCell id="ouK6QzMCspJjK9I2fayr-481" value="0..*" style="edgeLabel;resizable=0;html=1;align=left;verticalAlign=top;" parent="ouK6QzMCspJjK9I2fayr-480" connectable="0" vertex="1">
          <mxGeometry x="-1" relative="1" as="geometry">
            <mxPoint x="-37" y="-13" as="offset" />
          </mxGeometry>
        </mxCell>
        <mxCell id="ouK6QzMCspJjK9I2fayr-482" value="1..1" style="edgeLabel;resizable=0;html=1;align=right;verticalAlign=top;" parent="ouK6QzMCspJjK9I2fayr-480" connectable="0" vertex="1">
          <mxGeometry x="1" relative="1" as="geometry">
            <mxPoint x="45" y="-30" as="offset" />
          </mxGeometry>
        </mxCell>
        <mxCell id="ouK6QzMCspJjK9I2fayr-483" value="create" style="endArrow=open;html=1;endSize=12;startArrow=none;startSize=14;startFill=0;rounded=0;entryX=1;entryY=0.5;entryDx=0;entryDy=0;" parent="1" source="lPbnV7JKpfbCIfiGn8R--153" target="ouK6QzMCspJjK9I2fayr-43" edge="1">
          <mxGeometry relative="1" as="geometry">
            <mxPoint x="517" y="-73" as="sourcePoint" />
            <mxPoint x="-320" y="-89" as="targetPoint" />
            <Array as="points">
              <mxPoint x="180" y="-540" />
            </Array>
          </mxGeometry>
        </mxCell>
        <mxCell id="ouK6QzMCspJjK9I2fayr-484" value="0..*" style="edgeLabel;resizable=0;html=1;align=left;verticalAlign=top;" parent="ouK6QzMCspJjK9I2fayr-483" connectable="0" vertex="1">
          <mxGeometry x="-1" relative="1" as="geometry">
            <mxPoint x="-37" y="-13" as="offset" />
          </mxGeometry>
        </mxCell>
        <mxCell id="ouK6QzMCspJjK9I2fayr-485" value="1..1" style="edgeLabel;resizable=0;html=1;align=right;verticalAlign=top;" parent="ouK6QzMCspJjK9I2fayr-483" connectable="0" vertex="1">
          <mxGeometry x="1" relative="1" as="geometry">
            <mxPoint x="30" y="-9" as="offset" />
          </mxGeometry>
        </mxCell>
        <mxCell id="ouK6QzMCspJjK9I2fayr-486" value="" style="endArrow=diamondThin;html=1;endSize=12;startArrow=none;startSize=14;startFill=0;rounded=0;endFill=0;exitX=-0.013;exitY=0.061;exitDx=0;exitDy=0;exitPerimeter=0;entryX=1;entryY=0.5;entryDx=0;entryDy=0;" parent="1" source="ouK6QzMCspJjK9I2fayr-98" target="ouK6QzMCspJjK9I2fayr-95" edge="1">
          <mxGeometry relative="1" as="geometry">
            <mxPoint x="76" y="85" as="sourcePoint" />
            <mxPoint x="-360" y="-90" as="targetPoint" />
          </mxGeometry>
        </mxCell>
        <mxCell id="ouK6QzMCspJjK9I2fayr-487" value="0..*" style="edgeLabel;resizable=0;html=1;align=left;verticalAlign=top;" parent="ouK6QzMCspJjK9I2fayr-486" connectable="0" vertex="1">
          <mxGeometry x="-1" relative="1" as="geometry">
            <mxPoint x="-26" y="-3" as="offset" />
          </mxGeometry>
        </mxCell>
        <mxCell id="ouK6QzMCspJjK9I2fayr-488" value="1.1" style="edgeLabel;resizable=0;html=1;align=right;verticalAlign=top;" parent="ouK6QzMCspJjK9I2fayr-486" connectable="0" vertex="1">
          <mxGeometry x="1" relative="1" as="geometry">
            <mxPoint x="30" y="18" as="offset" />
          </mxGeometry>
        </mxCell>
        <mxCell id="ouK6QzMCspJjK9I2fayr-496" value="" style="endArrow=open;html=1;endSize=12;startArrow=none;startSize=14;startFill=0;rounded=0;endFill=0;exitX=0;exitY=0.5;exitDx=0;exitDy=0;" parent="1" source="ouK6QzMCspJjK9I2fayr-322" target="ouK6QzMCspJjK9I2fayr-78" edge="1">
          <mxGeometry relative="1" as="geometry">
            <mxPoint x="-490" y="-320" as="sourcePoint" />
            <mxPoint x="-470" y="-160" as="targetPoint" />
          </mxGeometry>
        </mxCell>
        <mxCell id="ouK6QzMCspJjK9I2fayr-497" value="0..*" style="edgeLabel;resizable=0;html=1;align=left;verticalAlign=top;" parent="ouK6QzMCspJjK9I2fayr-496" connectable="0" vertex="1">
          <mxGeometry x="-1" relative="1" as="geometry">
            <mxPoint x="-30" y="-20" as="offset" />
          </mxGeometry>
        </mxCell>
        <mxCell id="ouK6QzMCspJjK9I2fayr-498" value="0..*" style="edgeLabel;resizable=0;html=1;align=right;verticalAlign=top;" parent="ouK6QzMCspJjK9I2fayr-496" connectable="0" vertex="1">
          <mxGeometry x="1" relative="1" as="geometry">
            <mxPoint x="40" y="-23" as="offset" />
          </mxGeometry>
        </mxCell>
        <mxCell id="ouK6QzMCspJjK9I2fayr-499" value="" style="endArrow=open;html=1;endSize=12;startArrow=none;startSize=14;startFill=0;rounded=0;endFill=0;exitX=1;exitY=0.5;exitDx=0;exitDy=0;" parent="1" source="ouK6QzMCspJjK9I2fayr-321" target="ouK6QzMCspJjK9I2fayr-41" edge="1">
          <mxGeometry relative="1" as="geometry">
            <mxPoint x="-230" y="-350" as="sourcePoint" />
            <mxPoint x="-413" y="-179" as="targetPoint" />
          </mxGeometry>
        </mxCell>
        <mxCell id="ouK6QzMCspJjK9I2fayr-500" value="0..*" style="edgeLabel;resizable=0;html=1;align=left;verticalAlign=top;" parent="ouK6QzMCspJjK9I2fayr-499" connectable="0" vertex="1">
          <mxGeometry x="-1" relative="1" as="geometry">
            <mxPoint x="10" y="-17" as="offset" />
          </mxGeometry>
        </mxCell>
        <mxCell id="ouK6QzMCspJjK9I2fayr-501" value="0..*" style="edgeLabel;resizable=0;html=1;align=right;verticalAlign=top;" parent="ouK6QzMCspJjK9I2fayr-499" connectable="0" vertex="1">
          <mxGeometry x="1" relative="1" as="geometry">
            <mxPoint x="-12" y="-20" as="offset" />
          </mxGeometry>
        </mxCell>
        <mxCell id="MyUw59CfePWdErVICxrk-4" value="" style="endArrow=diamondThin;html=1;endSize=12;startArrow=none;startSize=14;startFill=0;rounded=0;endFill=1;exitX=0;exitY=0.5;exitDx=0;exitDy=0;" parent="1" source="ouK6QzMCspJjK9I2fayr-9" target="ouK6QzMCspJjK9I2fayr-41" edge="1">
          <mxGeometry relative="1" as="geometry">
            <mxPoint x="-1103" y="133.5" as="sourcePoint" />
            <mxPoint x="-440" y="100" as="targetPoint" />
          </mxGeometry>
        </mxCell>
        <mxCell id="MyUw59CfePWdErVICxrk-5" value="1..1" style="edgeLabel;resizable=0;html=1;align=left;verticalAlign=top;" parent="MyUw59CfePWdErVICxrk-4" connectable="0" vertex="1">
          <mxGeometry x="-1" relative="1" as="geometry">
            <mxPoint x="-20" y="-1" as="offset" />
          </mxGeometry>
        </mxCell>
        <mxCell id="MyUw59CfePWdErVICxrk-6" value="0..*" style="edgeLabel;resizable=0;html=1;align=right;verticalAlign=top;" parent="MyUw59CfePWdErVICxrk-4" connectable="0" vertex="1">
          <mxGeometry x="1" relative="1" as="geometry">
            <mxPoint y="10" as="offset" />
          </mxGeometry>
        </mxCell>
        <mxCell id="MyUw59CfePWdErVICxrk-8" value="" style="endArrow=diamondThin;html=1;endSize=12;startArrow=none;startSize=14;startFill=0;rounded=0;endFill=1;exitX=0;exitY=0.5;exitDx=0;exitDy=0;" parent="1" source="ouK6QzMCspJjK9I2fayr-29" target="ouK6QzMCspJjK9I2fayr-41" edge="1">
          <mxGeometry relative="1" as="geometry">
            <mxPoint x="-810" y="315.5" as="sourcePoint" />
            <mxPoint x="-121" y="-27.5" as="targetPoint" />
          </mxGeometry>
        </mxCell>
        <mxCell id="MyUw59CfePWdErVICxrk-9" value="1..1" style="edgeLabel;resizable=0;html=1;align=left;verticalAlign=top;" parent="MyUw59CfePWdErVICxrk-8" connectable="0" vertex="1">
          <mxGeometry x="-1" relative="1" as="geometry">
            <mxPoint x="-34" y="-1" as="offset" />
          </mxGeometry>
        </mxCell>
        <mxCell id="MyUw59CfePWdErVICxrk-10" value="0..*" style="edgeLabel;resizable=0;html=1;align=right;verticalAlign=top;" parent="MyUw59CfePWdErVICxrk-8" connectable="0" vertex="1">
          <mxGeometry x="1" relative="1" as="geometry">
            <mxPoint y="10" as="offset" />
          </mxGeometry>
        </mxCell>
        <mxCell id="MyUw59CfePWdErVICxrk-14" value="create" style="endArrow=open;html=1;endSize=12;startArrow=none;startSize=14;startFill=0;rounded=0;" parent="1" source="lPbnV7JKpfbCIfiGn8R--153" target="ouK6QzMCspJjK9I2fayr-26" edge="1">
          <mxGeometry relative="1" as="geometry">
            <mxPoint x="540" y="-156" as="sourcePoint" />
            <mxPoint x="190" y="-180" as="targetPoint" />
          </mxGeometry>
        </mxCell>
        <mxCell id="MyUw59CfePWdErVICxrk-15" value="0..*" style="edgeLabel;resizable=0;html=1;align=left;verticalAlign=top;" parent="MyUw59CfePWdErVICxrk-14" connectable="0" vertex="1">
          <mxGeometry x="-1" relative="1" as="geometry">
            <mxPoint x="-37" y="-4" as="offset" />
          </mxGeometry>
        </mxCell>
        <mxCell id="MyUw59CfePWdErVICxrk-16" value="1..1" style="edgeLabel;resizable=0;html=1;align=right;verticalAlign=top;" parent="MyUw59CfePWdErVICxrk-14" connectable="0" vertex="1">
          <mxGeometry x="1" relative="1" as="geometry">
            <mxPoint x="30" y="-9" as="offset" />
          </mxGeometry>
        </mxCell>
        <mxCell id="MyUw59CfePWdErVICxrk-17" value="create" style="endArrow=open;html=1;endSize=12;startArrow=none;startSize=14;startFill=0;rounded=0;entryX=0.814;entryY=-0.008;entryDx=0;entryDy=0;entryPerimeter=0;" parent="1" source="lPbnV7JKpfbCIfiGn8R--153" target="ouK6QzMCspJjK9I2fayr-5" edge="1">
          <mxGeometry relative="1" as="geometry">
            <mxPoint x="413" y="-163" as="sourcePoint" />
            <mxPoint x="-304" y="451" as="targetPoint" />
          </mxGeometry>
        </mxCell>
        <mxCell id="MyUw59CfePWdErVICxrk-18" value="0..*" style="edgeLabel;resizable=0;html=1;align=left;verticalAlign=top;" parent="MyUw59CfePWdErVICxrk-17" connectable="0" vertex="1">
          <mxGeometry x="-1" relative="1" as="geometry">
            <mxPoint x="-37" y="-4" as="offset" />
          </mxGeometry>
        </mxCell>
        <mxCell id="MyUw59CfePWdErVICxrk-19" value="1..1" style="edgeLabel;resizable=0;html=1;align=right;verticalAlign=top;" parent="MyUw59CfePWdErVICxrk-17" connectable="0" vertex="1">
          <mxGeometry x="1" relative="1" as="geometry">
            <mxPoint x="49" y="-28" as="offset" />
          </mxGeometry>
        </mxCell>
        <mxCell id="EE1-QcaFU-QpzursaLSf-8" value="reserve" style="endArrow=open;html=1;endSize=12;startArrow=none;startSize=14;startFill=0;rounded=0;entryX=1;entryY=0.5;entryDx=0;entryDy=0;" parent="1" source="lPbnV7JKpfbCIfiGn8R--153" target="ouK6QzMCspJjK9I2fayr-140" edge="1">
          <mxGeometry relative="1" as="geometry">
            <mxPoint x="577" y="-6" as="sourcePoint" />
            <mxPoint x="-10" y="-316" as="targetPoint" />
          </mxGeometry>
        </mxCell>
        <mxCell id="EE1-QcaFU-QpzursaLSf-9" value="1..1" style="edgeLabel;resizable=0;html=1;align=left;verticalAlign=top;" parent="EE1-QcaFU-QpzursaLSf-8" connectable="0" vertex="1">
          <mxGeometry x="-1" relative="1" as="geometry">
            <mxPoint x="-50" y="-34" as="offset" />
          </mxGeometry>
        </mxCell>
        <mxCell id="EE1-QcaFU-QpzursaLSf-10" value="1..1" style="edgeLabel;resizable=0;html=1;align=right;verticalAlign=top;" parent="EE1-QcaFU-QpzursaLSf-8" connectable="0" vertex="1">
          <mxGeometry x="1" relative="1" as="geometry">
            <mxPoint x="30" y="-9" as="offset" />
          </mxGeometry>
        </mxCell>
        <mxCell id="EE1-QcaFU-QpzursaLSf-11" value="" style="endArrow=diamondThin;html=1;endSize=12;startArrow=none;startSize=14;startFill=0;rounded=0;entryX=0;entryY=0.5;entryDx=0;entryDy=0;endFill=1;" parent="1" source="ouK6QzMCspJjK9I2fayr-41" target="ouK6QzMCspJjK9I2fayr-142" edge="1">
          <mxGeometry relative="1" as="geometry">
            <mxPoint x="684" y="-310" as="sourcePoint" />
            <mxPoint x="580" y="-550" as="targetPoint" />
          </mxGeometry>
        </mxCell>
        <mxCell id="EE1-QcaFU-QpzursaLSf-12" value="0..*" style="edgeLabel;resizable=0;html=1;align=left;verticalAlign=top;" parent="EE1-QcaFU-QpzursaLSf-11" connectable="0" vertex="1">
          <mxGeometry x="-1" relative="1" as="geometry">
            <mxPoint x="10" y="-13" as="offset" />
          </mxGeometry>
        </mxCell>
        <mxCell id="EE1-QcaFU-QpzursaLSf-13" value="1..1" style="edgeLabel;resizable=0;html=1;align=right;verticalAlign=top;" parent="EE1-QcaFU-QpzursaLSf-11" connectable="0" vertex="1">
          <mxGeometry x="1" relative="1" as="geometry">
            <mxPoint x="-30" y="-9" as="offset" />
          </mxGeometry>
        </mxCell>
        <mxCell id="f4Sr20RX5HmNV0wqVAR2-68" style="rounded=0;orthogonalLoop=1;jettySize=auto;html=1;entryX=0;entryY=0.5;entryDx=0;entryDy=0;endArrow=none;endFill=0;" edge="1" parent="1" source="f4Sr20RX5HmNV0wqVAR2-9" target="f4Sr20RX5HmNV0wqVAR2-16">
          <mxGeometry relative="1" as="geometry" />
        </mxCell>
        <mxCell id="f4Sr20RX5HmNV0wqVAR2-9" value="&lt;font color=&quot;#000000&quot;&gt;User&lt;/font&gt;" style="shape=umlActor;verticalLabelPosition=bottom;verticalAlign=top;html=1;outlineConnect=0;fillColor=#0050ef;fontColor=#ffffff;strokeColor=#001DBC;" vertex="1" parent="1">
          <mxGeometry x="-2470" y="3180" width="30" height="60" as="geometry" />
        </mxCell>
        <mxCell id="f4Sr20RX5HmNV0wqVAR2-12" value="&lt;font color=&quot;#000000&quot;&gt;Shef&lt;/font&gt;" style="shape=umlActor;verticalLabelPosition=bottom;verticalAlign=top;html=1;outlineConnect=0;fillColor=#60a917;fontColor=#ffffff;strokeColor=#2D7600;" vertex="1" parent="1">
          <mxGeometry x="-2400" y="3620" width="30" height="60" as="geometry" />
        </mxCell>
        <mxCell id="f4Sr20RX5HmNV0wqVAR2-13" value="&lt;font color=&quot;#000000&quot;&gt;Admin&lt;/font&gt;" style="shape=umlActor;verticalLabelPosition=bottom;verticalAlign=top;html=1;outlineConnect=0;fillColor=#d80073;fontColor=#ffffff;strokeColor=#A50040;" vertex="1" parent="1">
          <mxGeometry x="-2540" y="3942" width="30" height="60" as="geometry" />
        </mxCell>
        <mxCell id="f4Sr20RX5HmNV0wqVAR2-15" value="Reservate a menu" style="shape=umlFrame;whiteSpace=wrap;html=1;pointerEvents=0;fillColor=#f0a30a;fontColor=#000000;strokeColor=#BD7000;width=114;height=30;" vertex="1" parent="1">
          <mxGeometry x="-2244" y="2790" width="1364" height="1580" as="geometry" />
        </mxCell>
        <mxCell id="f4Sr20RX5HmNV0wqVAR2-16" value="login &amp;amp; logout" style="ellipse;whiteSpace=wrap;html=1;fillColor=#60a917;fontColor=#ffffff;strokeColor=#2D7600;" vertex="1" parent="1">
          <mxGeometry x="-2160" y="2830" width="120" height="60" as="geometry" />
        </mxCell>
        <mxCell id="f4Sr20RX5HmNV0wqVAR2-37" value="edite &amp;amp; delete &amp;amp;show profile" style="ellipse;whiteSpace=wrap;html=1;fillColor=#60a917;fontColor=#ffffff;strokeColor=#2D7600;" vertex="1" parent="1">
          <mxGeometry x="-2160" y="2900" width="125" height="60" as="geometry" />
        </mxCell>
        <mxCell id="f4Sr20RX5HmNV0wqVAR2-64" value="activate Account" style="ellipse;whiteSpace=wrap;html=1;fillColor=#60a917;fontColor=#ffffff;strokeColor=#2D7600;" vertex="1" parent="1">
          <mxGeometry x="-2160" y="2970" width="125" height="60" as="geometry" />
        </mxCell>
        <mxCell id="f4Sr20RX5HmNV0wqVAR2-65" value="resset Password" style="ellipse;whiteSpace=wrap;html=1;fillColor=#60a917;fontColor=#ffffff;strokeColor=#2D7600;" vertex="1" parent="1">
          <mxGeometry x="-2165" y="3040" width="125" height="60" as="geometry" />
        </mxCell>
        <mxCell id="f4Sr20RX5HmNV0wqVAR2-66" value="resend ActivationMail" style="ellipse;whiteSpace=wrap;html=1;fillColor=#60a917;fontColor=#ffffff;strokeColor=#2D7600;" vertex="1" parent="1">
          <mxGeometry x="-2165" y="3110" width="125" height="60" as="geometry" />
        </mxCell>
        <mxCell id="f4Sr20RX5HmNV0wqVAR2-67" value="Authentification&lt;br&gt;&amp;amp; accounte verified&amp;nbsp;" style="ellipse;whiteSpace=wrap;html=1;fillColor=#a20025;fontColor=#ffffff;strokeColor=#6F0000;" vertex="1" parent="1">
          <mxGeometry x="-1210" y="3130" width="125" height="60" as="geometry" />
        </mxCell>
        <mxCell id="f4Sr20RX5HmNV0wqVAR2-70" style="rounded=0;orthogonalLoop=1;jettySize=auto;html=1;entryX=0;entryY=0.333;entryDx=0;entryDy=0;endArrow=none;endFill=0;entryPerimeter=0;" edge="1" parent="1" source="f4Sr20RX5HmNV0wqVAR2-9" target="f4Sr20RX5HmNV0wqVAR2-37">
          <mxGeometry relative="1" as="geometry">
            <mxPoint x="-2320" y="2898" as="sourcePoint" />
            <mxPoint x="-2150" y="2870" as="targetPoint" />
          </mxGeometry>
        </mxCell>
        <mxCell id="f4Sr20RX5HmNV0wqVAR2-72" style="rounded=0;orthogonalLoop=1;jettySize=auto;html=1;entryX=0;entryY=0.5;entryDx=0;entryDy=0;endArrow=none;endFill=0;" edge="1" parent="1" source="f4Sr20RX5HmNV0wqVAR2-9" target="f4Sr20RX5HmNV0wqVAR2-64">
          <mxGeometry relative="1" as="geometry">
            <mxPoint x="-2320" y="2902" as="sourcePoint" />
            <mxPoint x="-2150" y="2930" as="targetPoint" />
          </mxGeometry>
        </mxCell>
        <mxCell id="f4Sr20RX5HmNV0wqVAR2-73" style="rounded=0;orthogonalLoop=1;jettySize=auto;html=1;entryX=0;entryY=0.5;entryDx=0;entryDy=0;endArrow=none;endFill=0;" edge="1" parent="1" source="f4Sr20RX5HmNV0wqVAR2-9" target="f4Sr20RX5HmNV0wqVAR2-65">
          <mxGeometry relative="1" as="geometry">
            <mxPoint x="-2310" y="2912" as="sourcePoint" />
            <mxPoint x="-2150" y="3010" as="targetPoint" />
          </mxGeometry>
        </mxCell>
        <mxCell id="f4Sr20RX5HmNV0wqVAR2-74" style="rounded=0;orthogonalLoop=1;jettySize=auto;html=1;entryX=0.022;entryY=0.409;entryDx=0;entryDy=0;endArrow=none;endFill=0;entryPerimeter=0;" edge="1" parent="1" source="f4Sr20RX5HmNV0wqVAR2-9" target="f4Sr20RX5HmNV0wqVAR2-66">
          <mxGeometry relative="1" as="geometry">
            <mxPoint x="-2300" y="2922" as="sourcePoint" />
            <mxPoint x="-2155" y="3080" as="targetPoint" />
          </mxGeometry>
        </mxCell>
        <mxCell id="f4Sr20RX5HmNV0wqVAR2-78" value="&amp;lt;&amp;lt;include&amp;gt;&amp;gt;" style="html=1;verticalAlign=bottom;endArrow=open;dashed=1;endSize=8;elbow=vertical;rounded=0;exitX=1;exitY=0.5;exitDx=0;exitDy=0;entryX=0;entryY=0.5;entryDx=0;entryDy=0;" edge="1" parent="1" source="f4Sr20RX5HmNV0wqVAR2-37" target="f4Sr20RX5HmNV0wqVAR2-79">
          <mxGeometry relative="1" as="geometry">
            <mxPoint x="-1910" y="2890" as="sourcePoint" />
            <mxPoint x="-2030" y="2870" as="targetPoint" />
          </mxGeometry>
        </mxCell>
        <mxCell id="f4Sr20RX5HmNV0wqVAR2-79" value="verify last password" style="ellipse;whiteSpace=wrap;html=1;fillColor=#d80073;fontColor=#ffffff;strokeColor=#A50040;" vertex="1" parent="1">
          <mxGeometry x="-1940" y="2870" width="125" height="60" as="geometry" />
        </mxCell>
        <mxCell id="f4Sr20RX5HmNV0wqVAR2-80" value="verify email code" style="ellipse;whiteSpace=wrap;html=1;fillColor=#d80073;fontColor=#ffffff;strokeColor=#A50040;" vertex="1" parent="1">
          <mxGeometry x="-1930" y="3040" width="125" height="60" as="geometry" />
        </mxCell>
        <mxCell id="f4Sr20RX5HmNV0wqVAR2-81" value="&amp;lt;&amp;lt;include&amp;gt;&amp;gt;" style="html=1;verticalAlign=bottom;endArrow=open;dashed=1;endSize=8;elbow=vertical;rounded=0;exitX=1;exitY=0.5;exitDx=0;exitDy=0;entryX=0;entryY=0.5;entryDx=0;entryDy=0;" edge="1" parent="1" source="f4Sr20RX5HmNV0wqVAR2-65" target="f4Sr20RX5HmNV0wqVAR2-80">
          <mxGeometry relative="1" as="geometry">
            <mxPoint x="-2035" y="3069.72" as="sourcePoint" />
            <mxPoint x="-1910" y="3069.72" as="targetPoint" />
          </mxGeometry>
        </mxCell>
        <mxCell id="f4Sr20RX5HmNV0wqVAR2-82" value="&amp;lt;&amp;lt;include&amp;gt;&amp;gt;" style="html=1;verticalAlign=bottom;endArrow=open;dashed=1;endSize=8;elbow=vertical;rounded=0;exitX=0.977;exitY=0.441;exitDx=0;exitDy=0;exitPerimeter=0;" edge="1" parent="1" source="f4Sr20RX5HmNV0wqVAR2-16" target="f4Sr20RX5HmNV0wqVAR2-67">
          <mxGeometry relative="1" as="geometry">
            <mxPoint x="-1970" y="2870" as="sourcePoint" />
            <mxPoint x="-1845" y="2870" as="targetPoint" />
            <Array as="points">
              <mxPoint x="-1790" y="2860" />
            </Array>
          </mxGeometry>
        </mxCell>
        <mxCell id="f4Sr20RX5HmNV0wqVAR2-83" value="&amp;lt;&amp;lt;include&amp;gt;&amp;gt;" style="html=1;verticalAlign=bottom;endArrow=open;dashed=1;endSize=8;elbow=vertical;rounded=0;exitX=1;exitY=0.5;exitDx=0;exitDy=0;" edge="1" parent="1" source="f4Sr20RX5HmNV0wqVAR2-37" target="f4Sr20RX5HmNV0wqVAR2-67">
          <mxGeometry relative="1" as="geometry">
            <mxPoint x="-2033" y="2866" as="sourcePoint" />
            <mxPoint x="-1650" y="3000" as="targetPoint" />
            <Array as="points">
              <mxPoint x="-1860" y="2950" />
            </Array>
          </mxGeometry>
        </mxCell>
        <mxCell id="f4Sr20RX5HmNV0wqVAR2-84" value="&amp;lt;&amp;lt;include&amp;gt;&amp;gt;" style="html=1;verticalAlign=bottom;endArrow=open;dashed=1;endSize=8;elbow=vertical;rounded=0;exitX=1;exitY=0.5;exitDx=0;exitDy=0;" edge="1" parent="1" source="f4Sr20RX5HmNV0wqVAR2-64" target="f4Sr20RX5HmNV0wqVAR2-67">
          <mxGeometry relative="1" as="geometry">
            <mxPoint x="-2025" y="2940" as="sourcePoint" />
            <mxPoint x="-1640" y="3010" as="targetPoint" />
            <Array as="points">
              <mxPoint x="-1860" y="2980" />
            </Array>
          </mxGeometry>
        </mxCell>
        <mxCell id="f4Sr20RX5HmNV0wqVAR2-85" value="&amp;lt;&amp;lt;include&amp;gt;&amp;gt;" style="html=1;verticalAlign=bottom;endArrow=open;dashed=1;endSize=8;elbow=vertical;rounded=0;exitX=1;exitY=0.5;exitDx=0;exitDy=0;" edge="1" parent="1" source="f4Sr20RX5HmNV0wqVAR2-65" target="f4Sr20RX5HmNV0wqVAR2-67">
          <mxGeometry relative="1" as="geometry">
            <mxPoint x="-2025" y="3010" as="sourcePoint" />
            <mxPoint x="-1630" y="3020" as="targetPoint" />
            <Array as="points">
              <mxPoint x="-1970" y="3020" />
              <mxPoint x="-1870" y="3010" />
            </Array>
          </mxGeometry>
        </mxCell>
        <mxCell id="f4Sr20RX5HmNV0wqVAR2-86" value="&amp;lt;&amp;lt;include&amp;gt;&amp;gt;" style="html=1;verticalAlign=bottom;endArrow=open;dashed=1;endSize=8;elbow=vertical;rounded=0;exitX=1.017;exitY=0.419;exitDx=0;exitDy=0;exitPerimeter=0;" edge="1" parent="1" source="f4Sr20RX5HmNV0wqVAR2-66" target="f4Sr20RX5HmNV0wqVAR2-67">
          <mxGeometry relative="1" as="geometry">
            <mxPoint x="-2030" y="3080" as="sourcePoint" />
            <mxPoint x="-1620" y="3030" as="targetPoint" />
            <Array as="points">
              <mxPoint x="-1840" y="3140" />
            </Array>
          </mxGeometry>
        </mxCell>
        <mxCell id="f4Sr20RX5HmNV0wqVAR2-87" value="Reservate menu" style="ellipse;whiteSpace=wrap;html=1;fillColor=#1ba1e2;fontColor=#ffffff;strokeColor=#006EAF;" vertex="1" parent="1">
          <mxGeometry x="-2165" y="3190" width="125" height="60" as="geometry" />
        </mxCell>
        <mxCell id="f4Sr20RX5HmNV0wqVAR2-88" value="Cancel reservation" style="ellipse;whiteSpace=wrap;html=1;fillColor=#1ba1e2;fontColor=#ffffff;strokeColor=#006EAF;" vertex="1" parent="1">
          <mxGeometry x="-2165" y="3260" width="125" height="60" as="geometry" />
        </mxCell>
        <mxCell id="f4Sr20RX5HmNV0wqVAR2-89" value="Add / read / delete comments&lt;br&gt;&amp;amp; feedback" style="ellipse;whiteSpace=wrap;html=1;fillColor=#1ba1e2;fontColor=#ffffff;strokeColor=#006EAF;" vertex="1" parent="1">
          <mxGeometry x="-2162.5" y="3340" width="135" height="70" as="geometry" />
        </mxCell>
        <mxCell id="f4Sr20RX5HmNV0wqVAR2-90" value="demand special &lt;br&gt;menu" style="ellipse;whiteSpace=wrap;html=1;fillColor=#1ba1e2;fontColor=#ffffff;strokeColor=#006EAF;" vertex="1" parent="1">
          <mxGeometry x="-2162.5" y="3420" width="125" height="60" as="geometry" />
        </mxCell>
        <mxCell id="f4Sr20RX5HmNV0wqVAR2-92" style="rounded=0;orthogonalLoop=1;jettySize=auto;html=1;entryX=0;entryY=0.5;entryDx=0;entryDy=0;endArrow=none;endFill=0;" edge="1" parent="1" source="f4Sr20RX5HmNV0wqVAR2-9" target="f4Sr20RX5HmNV0wqVAR2-87">
          <mxGeometry relative="1" as="geometry">
            <mxPoint x="-2398" y="3097" as="sourcePoint" />
            <mxPoint x="-2210" y="3250" as="targetPoint" />
          </mxGeometry>
        </mxCell>
        <mxCell id="f4Sr20RX5HmNV0wqVAR2-93" style="rounded=0;orthogonalLoop=1;jettySize=auto;html=1;endArrow=none;endFill=0;" edge="1" parent="1" source="f4Sr20RX5HmNV0wqVAR2-9" target="f4Sr20RX5HmNV0wqVAR2-88">
          <mxGeometry relative="1" as="geometry">
            <mxPoint x="-2430" y="3211" as="sourcePoint" />
            <mxPoint x="-2155" y="3230" as="targetPoint" />
          </mxGeometry>
        </mxCell>
        <mxCell id="f4Sr20RX5HmNV0wqVAR2-94" style="rounded=0;orthogonalLoop=1;jettySize=auto;html=1;endArrow=none;endFill=0;" edge="1" parent="1" source="f4Sr20RX5HmNV0wqVAR2-9" target="f4Sr20RX5HmNV0wqVAR2-89">
          <mxGeometry relative="1" as="geometry">
            <mxPoint x="-2420" y="3221" as="sourcePoint" />
            <mxPoint x="-2148" y="3287" as="targetPoint" />
          </mxGeometry>
        </mxCell>
        <mxCell id="f4Sr20RX5HmNV0wqVAR2-95" style="rounded=0;orthogonalLoop=1;jettySize=auto;html=1;endArrow=none;endFill=0;" edge="1" parent="1" source="f4Sr20RX5HmNV0wqVAR2-9" target="f4Sr20RX5HmNV0wqVAR2-90">
          <mxGeometry relative="1" as="geometry">
            <mxPoint x="-2410" y="3231" as="sourcePoint" />
            <mxPoint x="-2139" y="3350" as="targetPoint" />
          </mxGeometry>
        </mxCell>
        <mxCell id="f4Sr20RX5HmNV0wqVAR2-96" value="&amp;lt;&amp;lt;include&amp;gt;&amp;gt;" style="html=1;verticalAlign=bottom;endArrow=open;dashed=1;endSize=8;elbow=vertical;rounded=0;" edge="1" parent="1" source="f4Sr20RX5HmNV0wqVAR2-87" target="f4Sr20RX5HmNV0wqVAR2-67">
          <mxGeometry relative="1" as="geometry">
            <mxPoint x="-2028" y="3145" as="sourcePoint" />
            <mxPoint x="-1635" y="3024" as="targetPoint" />
            <Array as="points" />
          </mxGeometry>
        </mxCell>
        <mxCell id="f4Sr20RX5HmNV0wqVAR2-97" value="&amp;lt;&amp;lt;include&amp;gt;&amp;gt;" style="html=1;verticalAlign=bottom;endArrow=open;dashed=1;endSize=8;elbow=vertical;rounded=0;" edge="1" parent="1" source="f4Sr20RX5HmNV0wqVAR2-88" target="f4Sr20RX5HmNV0wqVAR2-67">
          <mxGeometry relative="1" as="geometry">
            <mxPoint x="-2040" y="3286" as="sourcePoint" />
            <mxPoint x="-1635" y="3090" as="targetPoint" />
            <Array as="points" />
          </mxGeometry>
        </mxCell>
        <mxCell id="f4Sr20RX5HmNV0wqVAR2-98" value="&amp;lt;&amp;lt;include&amp;gt;&amp;gt;" style="html=1;verticalAlign=bottom;endArrow=open;dashed=1;endSize=8;elbow=vertical;rounded=0;" edge="1" parent="1" source="f4Sr20RX5HmNV0wqVAR2-89" target="f4Sr20RX5HmNV0wqVAR2-67">
          <mxGeometry relative="1" as="geometry">
            <mxPoint x="-2030" y="3299" as="sourcePoint" />
            <mxPoint x="-1619" y="3028" as="targetPoint" />
            <Array as="points">
              <mxPoint x="-1820" y="3296" />
            </Array>
          </mxGeometry>
        </mxCell>
        <mxCell id="f4Sr20RX5HmNV0wqVAR2-100" value="&amp;lt;&amp;lt;include&amp;gt;&amp;gt;" style="html=1;verticalAlign=bottom;endArrow=open;dashed=1;endSize=8;elbow=vertical;rounded=0;" edge="1" parent="1" source="f4Sr20RX5HmNV0wqVAR2-90" target="f4Sr20RX5HmNV0wqVAR2-67">
          <mxGeometry relative="1" as="geometry">
            <mxPoint x="-2036" y="3357" as="sourcePoint" />
            <mxPoint x="-1617" y="3028" as="targetPoint" />
            <Array as="points" />
          </mxGeometry>
        </mxCell>
        <mxCell id="f4Sr20RX5HmNV0wqVAR2-104" value="Extends" style="endArrow=block;endSize=16;endFill=0;html=1;rounded=0;exitX=0.5;exitY=0;exitDx=0;exitDy=0;exitPerimeter=0;" edge="1" parent="1" source="f4Sr20RX5HmNV0wqVAR2-12">
          <mxGeometry width="160" relative="1" as="geometry">
            <mxPoint x="-2500" y="3290" as="sourcePoint" />
            <mxPoint x="-2455" y="3260" as="targetPoint" />
          </mxGeometry>
        </mxCell>
        <mxCell id="f4Sr20RX5HmNV0wqVAR2-111" value="add / update / delete /show&amp;nbsp;&lt;br&gt;Meals &amp;amp; menus&amp;nbsp;&amp;nbsp;" style="ellipse;whiteSpace=wrap;html=1;fillColor=#60a917;fontColor=#ffffff;strokeColor=#2D7600;" vertex="1" parent="1">
          <mxGeometry x="-2176.25" y="3520" width="165" height="70" as="geometry" />
        </mxCell>
        <mxCell id="f4Sr20RX5HmNV0wqVAR2-112" value="add meals to menus&amp;nbsp;&lt;br&gt;" style="ellipse;whiteSpace=wrap;html=1;fillColor=#60a917;fontColor=#ffffff;strokeColor=#2D7600;" vertex="1" parent="1">
          <mxGeometry x="-2175" y="3600" width="165" height="60" as="geometry" />
        </mxCell>
        <mxCell id="f4Sr20RX5HmNV0wqVAR2-113" value="remove meals frome menus" style="ellipse;whiteSpace=wrap;html=1;fillColor=#60a917;fontColor=#ffffff;strokeColor=#2D7600;" vertex="1" parent="1">
          <mxGeometry x="-2177.5" y="3670" width="167.5" height="60" as="geometry" />
        </mxCell>
        <mxCell id="f4Sr20RX5HmNV0wqVAR2-114" style="rounded=0;orthogonalLoop=1;jettySize=auto;html=1;endArrow=none;endFill=0;" edge="1" parent="1" source="f4Sr20RX5HmNV0wqVAR2-12" target="f4Sr20RX5HmNV0wqVAR2-111">
          <mxGeometry relative="1" as="geometry">
            <mxPoint x="-2440" y="3544.5" as="sourcePoint" />
            <mxPoint x="-2141" y="3731.5" as="targetPoint" />
          </mxGeometry>
        </mxCell>
        <mxCell id="f4Sr20RX5HmNV0wqVAR2-115" style="rounded=0;orthogonalLoop=1;jettySize=auto;html=1;endArrow=none;endFill=0;" edge="1" parent="1" source="f4Sr20RX5HmNV0wqVAR2-12" target="f4Sr20RX5HmNV0wqVAR2-112">
          <mxGeometry relative="1" as="geometry">
            <mxPoint x="-2445" y="3660" as="sourcePoint" />
            <mxPoint x="-2152" y="3573" as="targetPoint" />
          </mxGeometry>
        </mxCell>
        <mxCell id="f4Sr20RX5HmNV0wqVAR2-116" style="rounded=0;orthogonalLoop=1;jettySize=auto;html=1;endArrow=none;endFill=0;" edge="1" parent="1" source="f4Sr20RX5HmNV0wqVAR2-12" target="f4Sr20RX5HmNV0wqVAR2-113">
          <mxGeometry relative="1" as="geometry">
            <mxPoint x="-2435" y="3670" as="sourcePoint" />
            <mxPoint x="-2163" y="3647" as="targetPoint" />
          </mxGeometry>
        </mxCell>
        <mxCell id="f4Sr20RX5HmNV0wqVAR2-117" value="Extends" style="endArrow=block;endSize=16;endFill=0;html=1;rounded=0;" edge="1" parent="1" source="f4Sr20RX5HmNV0wqVAR2-13">
          <mxGeometry width="160" relative="1" as="geometry">
            <mxPoint x="-2470" y="3990" as="sourcePoint" />
            <mxPoint x="-2470" y="3270" as="targetPoint" />
          </mxGeometry>
        </mxCell>
        <mxCell id="f4Sr20RX5HmNV0wqVAR2-120" value="add / update / delete /show&amp;nbsp;&lt;br&gt;categories&amp;nbsp;&amp;nbsp;" style="ellipse;whiteSpace=wrap;html=1;fillColor=#e3c800;fontColor=#000000;strokeColor=#B09500;" vertex="1" parent="1">
          <mxGeometry x="-2162.5" y="3802" width="165" height="70" as="geometry" />
        </mxCell>
        <mxCell id="f4Sr20RX5HmNV0wqVAR2-121" value="&amp;nbsp;delete /show&amp;nbsp;&lt;br&gt;meals &amp;amp; meanus" style="ellipse;whiteSpace=wrap;html=1;fillColor=#e3c800;fontColor=#000000;strokeColor=#B09500;" vertex="1" parent="1">
          <mxGeometry x="-2162.5" y="3912" width="165" height="70" as="geometry" />
        </mxCell>
        <mxCell id="f4Sr20RX5HmNV0wqVAR2-122" value="&amp;nbsp;add / delete&lt;br&gt;permissions to user &amp;amp; shef &amp;amp; admin" style="ellipse;whiteSpace=wrap;html=1;fillColor=#f0a30a;fontColor=#000000;strokeColor=#BD7000;" vertex="1" parent="1">
          <mxGeometry x="-2165" y="4022" width="165" height="70" as="geometry" />
        </mxCell>
        <mxCell id="f4Sr20RX5HmNV0wqVAR2-123" style="rounded=0;orthogonalLoop=1;jettySize=auto;html=1;endArrow=none;endFill=0;" edge="1" parent="1" source="f4Sr20RX5HmNV0wqVAR2-13" target="f4Sr20RX5HmNV0wqVAR2-120">
          <mxGeometry relative="1" as="geometry">
            <mxPoint x="-2430" y="3782" as="sourcePoint" />
            <mxPoint x="-2229" y="3816" as="targetPoint" />
          </mxGeometry>
        </mxCell>
        <mxCell id="f4Sr20RX5HmNV0wqVAR2-124" style="rounded=0;orthogonalLoop=1;jettySize=auto;html=1;endArrow=none;endFill=0;" edge="1" parent="1" source="f4Sr20RX5HmNV0wqVAR2-13" target="f4Sr20RX5HmNV0wqVAR2-121">
          <mxGeometry relative="1" as="geometry">
            <mxPoint x="-2500" y="3970" as="sourcePoint" />
            <mxPoint x="-2127" y="3678" as="targetPoint" />
          </mxGeometry>
        </mxCell>
        <mxCell id="f4Sr20RX5HmNV0wqVAR2-125" style="rounded=0;orthogonalLoop=1;jettySize=auto;html=1;endArrow=none;endFill=0;" edge="1" parent="1" source="f4Sr20RX5HmNV0wqVAR2-13" target="f4Sr20RX5HmNV0wqVAR2-122">
          <mxGeometry relative="1" as="geometry">
            <mxPoint x="-2490" y="3980" as="sourcePoint" />
            <mxPoint x="-2140" y="3766" as="targetPoint" />
          </mxGeometry>
        </mxCell>
        <mxCell id="f4Sr20RX5HmNV0wqVAR2-126" value="Authentification&lt;br&gt;&amp;amp; accounte verified&amp;nbsp;" style="ellipse;whiteSpace=wrap;html=1;fillColor=#a20025;fontColor=#ffffff;strokeColor=#6F0000;" vertex="1" parent="1">
          <mxGeometry x="-1805" y="3932" width="125" height="60" as="geometry" />
        </mxCell>
        <mxCell id="f4Sr20RX5HmNV0wqVAR2-127" value="&amp;lt;&amp;lt;include&amp;gt;&amp;gt;" style="html=1;verticalAlign=bottom;endArrow=open;dashed=1;endSize=8;elbow=vertical;rounded=0;" edge="1" parent="1" source="f4Sr20RX5HmNV0wqVAR2-121" target="f4Sr20RX5HmNV0wqVAR2-126">
          <mxGeometry relative="1" as="geometry">
            <mxPoint x="-2037.5" y="3550" as="sourcePoint" />
            <mxPoint x="-1190.5" y="3292" as="targetPoint" />
            <Array as="points" />
          </mxGeometry>
        </mxCell>
        <mxCell id="f4Sr20RX5HmNV0wqVAR2-128" value="&amp;lt;&amp;lt;include&amp;gt;&amp;gt;" style="html=1;verticalAlign=bottom;endArrow=open;dashed=1;endSize=8;elbow=vertical;rounded=0;" edge="1" parent="1">
          <mxGeometry relative="1" as="geometry">
            <mxPoint x="-2008" y="3870" as="sourcePoint" />
            <mxPoint x="-1782" y="3954" as="targetPoint" />
            <Array as="points" />
          </mxGeometry>
        </mxCell>
        <mxCell id="f4Sr20RX5HmNV0wqVAR2-129" value="&amp;lt;&amp;lt;include&amp;gt;&amp;gt;" style="html=1;verticalAlign=bottom;endArrow=open;dashed=1;endSize=8;elbow=vertical;rounded=0;" edge="1" parent="1" source="f4Sr20RX5HmNV0wqVAR2-122" target="f4Sr20RX5HmNV0wqVAR2-126">
          <mxGeometry relative="1" as="geometry">
            <mxPoint x="-1974" y="4032" as="sourcePoint" />
            <mxPoint x="-1781" y="4041" as="targetPoint" />
            <Array as="points" />
          </mxGeometry>
        </mxCell>
        <mxCell id="f4Sr20RX5HmNV0wqVAR2-130" value="Authentification&lt;br&gt;&amp;amp; accounte verified&amp;nbsp;" style="ellipse;whiteSpace=wrap;html=1;fillColor=#a20025;fontColor=#ffffff;strokeColor=#6F0000;" vertex="1" parent="1">
          <mxGeometry x="-1779" y="3620" width="125" height="60" as="geometry" />
        </mxCell>
        <mxCell id="f4Sr20RX5HmNV0wqVAR2-131" value="&amp;lt;&amp;lt;include&amp;gt;&amp;gt;" style="html=1;verticalAlign=bottom;endArrow=open;dashed=1;endSize=8;elbow=vertical;rounded=0;" edge="1" parent="1" source="f4Sr20RX5HmNV0wqVAR2-111" target="f4Sr20RX5HmNV0wqVAR2-130">
          <mxGeometry relative="1" as="geometry">
            <mxPoint x="-2020" y="3490" as="sourcePoint" />
            <mxPoint x="-1794" y="3574" as="targetPoint" />
            <Array as="points" />
          </mxGeometry>
        </mxCell>
        <mxCell id="f4Sr20RX5HmNV0wqVAR2-132" value="&amp;lt;&amp;lt;include&amp;gt;&amp;gt;" style="html=1;verticalAlign=bottom;endArrow=open;dashed=1;endSize=8;elbow=vertical;rounded=0;" edge="1" parent="1" source="f4Sr20RX5HmNV0wqVAR2-112" target="f4Sr20RX5HmNV0wqVAR2-130">
          <mxGeometry relative="1" as="geometry">
            <mxPoint x="-2015" y="3585" as="sourcePoint" />
            <mxPoint x="-1841" y="3635" as="targetPoint" />
            <Array as="points" />
          </mxGeometry>
        </mxCell>
        <mxCell id="f4Sr20RX5HmNV0wqVAR2-133" value="&amp;lt;&amp;lt;include&amp;gt;&amp;gt;" style="html=1;verticalAlign=bottom;endArrow=open;dashed=1;endSize=8;elbow=vertical;rounded=0;" edge="1" parent="1" source="f4Sr20RX5HmNV0wqVAR2-113" target="f4Sr20RX5HmNV0wqVAR2-130">
          <mxGeometry relative="1" as="geometry">
            <mxPoint x="-2000" y="3643" as="sourcePoint" />
            <mxPoint x="-1850" y="3648" as="targetPoint" />
            <Array as="points" />
          </mxGeometry>
        </mxCell>
      </root>
    </mxGraphModel>
  </diagram>
</mxfile>
